# The Great Editor v0.0.1
mtllib floor_2.mtl
o floor_2
v 71.45 -3.25 0
v 71.45 -3.25 -0.1
v 83.1 -3.25 0
v 83.1 -3.25 -0.1
v 83.1 -14.75 0
v 83.1 -14.75 -0.1
v 81.35 -14.75 0
v 81.35 -14.75 -0.1
v 81.35 -16.75 0
v 81.35 -16.75 -0.1
v 78.1 -16.75 0
v 78.1 -16.75 -0.1
v 78.1 -10.25 0
v 78.1 -10.25 -0.1
v 71.45 -10.25 0
v 71.45 -10.25 -0.1
vt 71.45 -3.25 0
vt 83.1 -3.25 0
vt 83.1 -14.75 0
vt 81.35 -14.75 0
vt 81.35 -16.75 0
vt 78.1 -16.75 0
vt 78.1 -10.25 0
vt 71.45 -10.25 0
vn 0 0 1
vn 0 0 -1
usemtl floor_2
s off
f 15/8/1 13/7/1 1/1/1
f 2/1/2 14/7/2 16/8/2
f 13/7/1 3/2/1 1/1/1
f 2/1/2 4/2/2 14/7/2
f 13/7/1 5/3/1 3/2/1
f 4/2/2 6/3/2 14/7/2
f 9/5/1 7/4/1 11/6/1
f 12/6/2 8/4/2 10/5/2
f 7/4/1 13/7/1 11/6/1
f 12/6/2 14/7/2 8/4/2
f 7/4/1 5/3/1 13/7/1
f 14/7/2 6/3/2 8/4/2
