# The Great Editor v0.0.1
mtllib floor_7.mtl
o floor_7
v 61.95 -27.950000000000003 0
v 61.95 -27.950000000000003 -0.1
v 61.95 -24.950000000000003 0
v 61.95 -24.950000000000003 -0.1
v 71.45 -24.950000000000003 0
v 71.45 -24.950000000000003 -0.1
v 71.45 -27.950000000000003 0
v 71.45 -27.950000000000003 -0.1
v 62.125 -27.625000000000004 0
v 62.125 -27.625000000000004 -0.1
v 62.125 -25.025000000000002 0
v 62.125 -25.025000000000002 -0.1
v 65.025 -25.025000000000002 0
v 65.025 -25.025000000000002 -0.1
v 65.025 -27.625000000000004 0
v 65.025 -27.625000000000004 -0.1
v 65.265 -27.625000000000004 0
v 65.265 -27.625000000000004 -0.1
v 65.265 -25.025000000000002 0
v 65.265 -25.025000000000002 -0.1
v 68.165 -27.625000000000004 0
v 68.165 -27.625000000000004 -0.1
v 68.375 -27.625000000000004 0
v 68.375 -27.625000000000004 -0.1
v 68.165 -25.025000000000002 0
v 68.165 -25.025000000000002 -0.1
v 68.375 -25.025000000000002 0
v 68.375 -25.025000000000002 -0.1
v 71.275 -25.025000000000002 0
v 71.275 -25.025000000000002 -0.1
v 71.275 -27.625000000000004 0
v 71.275 -27.625000000000004 -0.1
vt 61.95 -27.950000000000003 0
vt 61.95 -24.950000000000003 0
vt 71.45 -24.950000000000003 0
vt 71.45 -27.950000000000003 0
vt 62.125 -27.625000000000004 0
vt 62.125 -25.025000000000002 0
vt 65.025 -25.025000000000002 0
vt 65.025 -27.625000000000004 0
vt 65.265 -27.625000000000004 0
vt 65.265 -25.025000000000002 0
vt 68.165 -27.625000000000004 0
vt 68.375 -27.625000000000004 0
vt 68.165 -25.025000000000002 0
vt 68.375 -25.025000000000002 0
vt 71.275 -25.025000000000002 0
vt 71.275 -27.625000000000004 0
vn 0 0 1
vn 0 0 -1
usemtl floor_7
s off
f 1/1/1 9/5/1 3/2/1
f 4/2/2 10/5/2 2/1/2
f 9/5/1 11/6/1 3/2/1
f 4/2/2 12/6/2 10/5/2
f 11/6/1 13/7/1 3/2/1
f 4/2/2 14/7/2 12/6/2
f 15/8/1 17/9/1 13/7/1
f 14/7/2 18/9/2 16/8/2
f 17/9/1 19/10/1 13/7/1
f 14/7/2 20/10/2 18/9/2
f 21/11/1 23/12/1 25/13/1
f 26/13/2 24/12/2 22/11/2
f 23/12/1 27/14/1 25/13/1
f 26/13/2 28/14/2 24/12/2
f 29/15/1 5/3/1 27/14/1
f 28/14/2 6/3/2 30/15/2
f 29/15/1 31/16/1 5/3/1
f 6/3/2 32/16/2 30/15/2
f 31/16/1 7/4/1 5/3/1
f 6/3/2 8/4/2 32/16/2
f 7/4/1 17/9/1 1/1/1
f 2/1/2 18/9/2 8/4/2
f 17/9/1 15/8/1 1/1/1
f 2/1/2 16/8/2 18/9/2
f 15/8/1 9/5/1 1/1/1
f 2/1/2 10/5/2 16/8/2
f 7/4/1 21/11/1 17/9/1
f 18/9/2 22/11/2 8/4/2
f 7/4/1 23/12/1 21/11/1
f 22/11/2 24/12/2 8/4/2
f 7/4/1 31/16/1 23/12/1
f 24/12/2 32/16/2 8/4/2
