# The Great Editor v0.0.1
mtllib floor_30.mtl
o floor_30
v 24.45 -9.75 0
v 24.45 -9.75 -0.1
v 24.45 -12.25 0
v 24.45 -12.25 -0.1
v 26.95 -12.25 0
v 26.95 -12.25 -0.1
v 26.95 -10.75 0
v 26.95 -10.75 -0.1
v 26.2 -10.75 0
v 26.2 -10.75 -0.1
v 26.2 -9.75 0
v 26.2 -9.75 -0.1
vt 24.45 -9.75 0
vt 24.45 -12.25 0
vt 26.95 -12.25 0
vt 26.95 -10.75 0
vt 26.2 -10.75 0
vt 26.2 -9.75 0
vn 0 0 1
vn 0 0 -1
usemtl floor_30
s off
f 3/2/1 9/5/1 1/1/1
f 2/1/2 10/5/2 4/2/2
f 9/5/1 11/6/1 1/1/1
f 2/1/2 12/6/2 10/5/2
f 9/5/1 5/3/1 7/4/1
f 8/4/2 6/3/2 10/5/2
f 9/5/1 3/2/1 5/3/1
f 6/3/2 4/2/2 10/5/2
