# The Great Editor v0.0.1
mtllib floor_28.mtl
o floor_28
v 15.45 -28.25 0
v 15.45 -28.25 -0.1
v 15.45 -26.5 0
v 15.45 -26.5 -0.1
v 16.45 -26.5 0
v 16.45 -26.5 -0.1
v 16.45 -25.0 0
v 16.45 -25.0 -0.1
v 15.45 -25.0 0
v 15.45 -25.0 -0.1
v 15.45 -23.25 0
v 15.45 -23.25 -0.1
v 17.45 -23.25 0
v 17.45 -23.25 -0.1
v 17.45 -28.25 0
v 17.45 -28.25 -0.1
vt 15.45 -28.25 0
vt 15.45 -26.5 0
vt 16.45 -26.5 0
vt 16.45 -25.0 0
vt 15.45 -25.0 0
vt 15.45 -23.25 0
vt 17.45 -23.25 0
vt 17.45 -28.25 0
vn 0 0 1
vn 0 0 -1
usemtl floor_28
s off
f 9/5/1 7/4/1 11/6/1
f 12/6/2 8/4/2 10/5/2
f 7/4/1 13/7/1 11/6/1
f 12/6/2 14/7/2 8/4/2
f 7/4/1 15/8/1 13/7/1
f 14/7/2 16/8/2 8/4/2
f 15/8/1 5/3/1 1/1/1
f 2/1/2 6/3/2 16/8/2
f 5/3/1 3/2/1 1/1/1
f 2/1/2 4/2/2 6/3/2
f 5/3/1 15/8/1 7/4/1
f 8/4/2 16/8/2 6/3/2
