# The Great Editor v0.0.1
mtllib floor_34.mtl
o floor_34
v 52.45 -10.75 0
v 52.45 -10.75 -0.1
v 52.45 -12.25 0
v 52.45 -12.25 -0.1
v 54.95 -12.25 0
v 54.95 -12.25 -0.1
v 54.95 -9.75 0
v 54.95 -9.75 -0.1
v 53.2 -9.75 0
v 53.2 -9.75 -0.1
v 53.2 -10.75 0
v 53.2 -10.75 -0.1
vt 52.45 -10.75 0
vt 52.45 -12.25 0
vt 54.95 -12.25 0
vt 54.95 -9.75 0
vt 53.2 -9.75 0
vt 53.2 -10.75 0
vn 0 0 1
vn 0 0 -1
usemtl floor_34
s off
f 3/2/1 11/6/1 1/1/1
f 2/1/2 12/6/2 4/2/2
f 11/6/1 7/4/1 9/5/1
f 10/5/2 8/4/2 12/6/2
f 11/6/1 5/3/1 7/4/1
f 8/4/2 6/3/2 12/6/2
f 5/3/1 11/6/1 3/2/1
f 4/2/2 12/6/2 6/3/2
