# The Great Editor v0.0.1
mtllib floor_47.mtl
o floor_47
v 66.95 -33.5 0
v 66.95 -33.5 -0.1
v 66.95 -36.5 0
v 66.95 -36.5 -0.1
v 72.95 -36.5 0
v 72.95 -36.5 -0.1
v 72.95 -33.5 0
v 72.95 -33.5 -0.1
v 75.45 -33.5 0
v 75.45 -33.5 -0.1
v 75.45 -32.0 0
v 75.45 -32.0 -0.1
v 73.2 -32.0 0
v 73.2 -32.0 -0.1
v 73.2 -31.5 0
v 73.2 -31.5 -0.1
v 68.95 -31.5 0
v 68.95 -31.5 -0.1
v 68.95 -30.5 0
v 68.95 -30.5 -0.1
v 67.45 -30.5 0
v 67.45 -30.5 -0.1
v 67.45 -33.5 0
v 67.45 -33.5 -0.1
vt 66.95 -33.5 0
vt 66.95 -36.5 0
vt 72.95 -36.5 0
vt 72.95 -33.5 0
vt 75.45 -33.5 0
vt 75.45 -32.0 0
vt 73.2 -32.0 0
vt 73.2 -31.5 0
vt 68.95 -31.5 0
vt 68.95 -30.5 0
vt 67.45 -30.5 0
vt 67.45 -33.5 0
vn 0 0 1
vn 0 0 -1
usemtl floor_47
s off
f 23/12/1 17/9/1 21/11/1
f 22/11/2 18/9/2 24/12/2
f 17/9/1 19/10/1 21/11/1
f 22/11/2 20/10/2 18/9/2
f 17/9/1 13/7/1 15/8/1
f 16/8/2 14/7/2 18/9/2
f 13/7/1 9/5/1 11/6/1
f 12/6/2 10/5/2 14/7/2
f 7/4/1 23/12/1 5/3/1
f 6/3/2 24/12/2 8/4/2
f 23/12/1 3/2/1 5/3/1
f 6/3/2 4/2/2 24/12/2
f 23/12/1 1/1/1 3/2/1
f 4/2/2 2/1/2 24/12/2
f 7/4/1 17/9/1 23/12/1
f 24/12/2 18/9/2 8/4/2
f 7/4/1 13/7/1 17/9/1
f 18/9/2 14/7/2 8/4/2
f 7/4/1 9/5/1 13/7/1
f 14/7/2 10/5/2 8/4/2
