# The Great Editor v0.0.1
mtllib floor_1.mtl
o floor_1
v 6.466782046844358 -5.58772354909427 0
v 6.466782046844358 -5.58772354909427 -0.1
v 9.997230875735557 -5.58772354909427 0
v 9.997230875735557 -5.58772354909427 -0.1
v 9.958947732779517 -5.897757778546985 0
v 9.958947732779517 -5.897757778546985 -0.1
v 10.935329410407302 -5.901149955770936 0
v 10.935329410407302 -5.901149955770936 -0.1
v 10.935329410407302 -5.5062036075535605 0
v 10.935329410407302 -5.5062036075535605 -0.1
v 11.849548094304074 -5.491584939040811 0
v 11.849548094304074 -5.491584939040811 -0.1
v 11.849548094304074 -5.871885696703978 0
v 11.849548094304074 -5.871885696703978 -0.1
v 12.828783508326614 -5.871885696703978 0
v 12.828783508326614 -5.871885696703978 -0.1
v 12.828783508326614 -5.596661666858972 0
v 12.828783508326614 -5.596661666858972 -0.1
v 14.19725779777702 -5.596661666858972 0
v 14.19725779777702 -5.596661666858972 -0.1
v 19.860201530710373 -5.596661666858972 0
v 19.860201530710373 -5.596661666858972 -0.1
v 19.860201530710373 -5.875331718010851 0
v 19.860201530710373 -5.875331718010851 -0.1
v 20.79181185339027 -5.869247336640903 0
v 20.79181185339027 -5.869247336640903 -0.1
v 20.776735510172703 -5.552671051113424 0
v 20.776735510172703 -5.552671051113424 -0.1
v 21.74154070997271 -5.552671051113424 0
v 21.74154070997271 -5.552671051113424 -0.1
v 21.734002538363928 -5.86170916503212 0
v 21.734002538363928 -5.86170916503212 -0.1
v 22.67177800853815 -5.86170916503212 0
v 22.67177800853815 -5.86170916503212 -0.1
v 22.661816853197973 -5.566805122879894 0
v 22.661816853197973 -5.566805122879894 -0.1
v 23.39331564170611 -5.566805122879894 0
v 23.39331564170611 -5.566805122879894 -0.1
v 29.678293142571462 -5.566805122879894 0
v 29.678293142571462 -5.566805122879894 -0.1
v 29.68327372024156 -5.845475174031773 0
v 29.68327372024156 -5.845475174031773 -0.1
v 30.618599284642926 -5.843617553171037 0
v 30.618599284642926 -5.843617553171037 -0.1
v 30.618599284642926 -5.564624437521639 0
v 30.618599284642926 -5.564624437521639 -0.1
v 31.55037113957158 -5.5590515749394305 0
v 31.55037113957158 -5.5590515749394305 -0.1
v 31.55037113957158 -5.8547632783354535 0
v 31.55037113957158 -5.8547632783354535 -0.1
v 32.589400407676656 -5.8547632783354535 0
v 32.589400407676656 -5.8547632783354535 -0.1
v 32.589400407676656 -5.561824545209805 0
v 32.589400407676656 -5.561824545209805 -0.1
v 37.74009845775166 -5.547771239567714 0
v 37.74009845775166 -5.547771239567714 -0.1
v 40.40818045459793 -5.547771239567714 0
v 40.40818045459793 -5.547771239567714 -0.1
v 41.346413599476975 -5.540448444290609 0
v 41.346413599476975 -5.540448444290609 -0.1
v 50.19970001153806 -5.5292488750432724 0
v 50.19970001153806 -5.5292488750432724 -0.1
v 51.12824122149153 -5.5292488750432724 0
v 51.12824122149153 -5.5292488750432724 -0.1
v 51.12824122149153 -6.4797315487865905 0
v 51.12824122149153 -6.4797315487865905 -0.1
v 50.74072535671709 -6.50896888581209 0
v 50.74072535671709 -6.50896888581209 -0.1
v 50.74072535671709 -9.221472251067274 0
v 50.74072535671709 -9.221472251067274 -0.1
v 51.120918426214416 -9.221472251067274 0
v 51.120918426214416 -9.221472251067274 -0.1
v 51.120918426214416 -9.98185839006193 0
v 51.120918426214416 -9.98185839006193 -0.1
v 55.566205145955976 -9.98185839006193 0
v 55.566205145955976 -9.98185839006193 -0.1
v 55.54202915272494 -15.316433983308348 0
v 55.54202915272494 -15.316433983308348 -0.1
v 55.54202915272494 -19.241667628168162 0
v 55.54202915272494 -19.241667628168162 -0.1
v 55.54202915272494 -26.038540825352893 0
v 55.54202915272494 -26.038540825352893 -0.1
v 55.54202915272494 -29.661466866658998 0
v 55.54202915272494 -29.661466866658998 -0.1
v 55.54202915272494 -33.32523364485984 0
v 55.54202915272494 -33.32523364485984 -0.1
v 55.61154186377451 -40.968401215337906 0
v 55.61154186377451 -40.968401215337906 -0.1
v 50.88214684050618 -40.968401215337906 0
v 50.88214684050618 -40.968401215337906 -0.1
v 50.88214684050618 -44.988885042883005 0
v 50.88214684050618 -44.988885042883005 -0.1
v 37.21048805815164 -44.988885042883005 0
v 37.21048805815164 -44.988885042883005 -0.1
v 11.138940809968856 -45.04579823852933 0
v 11.138940809968856 -45.04579823852933 -0.1
v 9.839117726241307 -43.761751471097305 0
v 9.839117726241307 -43.761751471097305 -0.1
v 7.466747432791053 -46.161151494173346 0
v 7.466747432791053 -46.161151494173346 -0.1
v 5.10353063343718 -43.798634667897424 0
v 5.10353063343718 -43.798634667897424 -0.1
v 2.7822045305949796 -41.42055690165767 0
v 2.7822045305949796 -41.42055690165767 -0.1
v 5.0812661051498065 -39.04767508941967 0
v 5.0812661051498065 -39.04767508941967 -0.1
v 6.4827198953886445 -37.75409791931083 0
v 6.4827198953886445 -37.75409791931083 -0.1
v 6.48514287912004 -35.062324525979804 0
v 6.48514287912004 -35.062324525979804 -0.1
v 6.49470020383832 -34.040283066035954 0
v 6.49470020383832 -34.040283066035954 -0.1
v 6.497984692896432 -32.596292450290406 0
v 6.497984692896432 -32.596292450290406 -0.1
v 6.497984692896432 -29.013049498096255 0
v 6.497984692896432 -29.013049498096255 -0.1
v 6.497984692896432 -25.344086765893643 0
v 6.497984692896432 -25.344086765893643 -0.1
v 6.497984692896432 -21.812291834929447 0
v 6.497984692896432 -21.812291834929447 -0.1
v 6.503261413022582 -18.815868620437694 0
v 6.503261413022582 -18.815868620437694 -0.1
v 6.497984692896432 -15.400188454290234 0
v 6.497984692896432 -15.400188454290234 -0.1
v 6.497984692896432 -11.11401099957695 0
v 6.497984692896432 -11.11401099957695 -0.1
v 41.77279937264383 -8.978411028330763 0
v 41.77279937264383 -8.978411028330763 -0.1
v 41.777736596684946 -5.878414959975389 0
v 41.777736596684946 -5.878414959975389 -0.1
v 44.377733299176555 -5.8825558575582555 0
v 44.377733299176555 -5.8825558575582555 -0.1
v 45.41221219377737 -5.878414959975389 0
v 45.41221219377737 -5.878414959975389 -0.1
v 48.01220889626898 -5.8825558575582555 0
v 48.01220889626898 -5.8825558575582555 -0.1
v 7.362197327988327 -45.70979784213504 0
v 7.362197327988327 -45.70979784213504 -0.1
v 5.522987828153608 -43.872052371261084 0
v 5.522987828153608 -43.872052371261084 -0.1
v 5.046901762433154 -43.394502276579864 0
v 5.046901762433154 -43.394502276579864 -0.1
v 3.2076922625984343 -41.55675680570591 0
v 3.2076922625984343 -41.55675680570591 -0.1
v 44.37279607513544 -8.982551925913627 0
v 44.37279607513544 -8.982551925913627 -0.1
v 45.40727496973626 -8.978411028330763 0
v 45.40727496973626 -8.978411028330763 -0.1
v 48.007271672227866 -8.982551925913627 0
v 48.007271672227866 -8.982551925913627 -0.1
v 9.553355389414962 -43.516894207716724 0
v 9.553355389414962 -43.516894207716724 -0.1
v 7.714145889580243 -41.67914873684277 0
v 7.714145889580243 -41.67914873684277 -0.1
v 7.238059823859788 -41.20159864216155 0
v 7.238059823859788 -41.20159864216155 -0.1
v 5.3988503240250685 -39.363853171287595 0
v 5.3988503240250685 -39.363853171287595 -0.1
vt 6.466782046844358 -5.58772354909427 0
vt 9.997230875735557 -5.58772354909427 0
vt 9.958947732779517 -5.897757778546985 0
vt 10.935329410407302 -5.901149955770936 0
vt 10.935329410407302 -5.5062036075535605 0
vt 11.849548094304074 -5.491584939040811 0
vt 11.849548094304074 -5.871885696703978 0
vt 12.828783508326614 -5.871885696703978 0
vt 12.828783508326614 -5.596661666858972 0
vt 14.19725779777702 -5.596661666858972 0
vt 19.860201530710373 -5.596661666858972 0
vt 19.860201530710373 -5.875331718010851 0
vt 20.79181185339027 -5.869247336640903 0
vt 20.776735510172703 -5.552671051113424 0
vt 21.74154070997271 -5.552671051113424 0
vt 21.734002538363928 -5.86170916503212 0
vt 22.67177800853815 -5.86170916503212 0
vt 22.661816853197973 -5.566805122879894 0
vt 23.39331564170611 -5.566805122879894 0
vt 29.678293142571462 -5.566805122879894 0
vt 29.68327372024156 -5.845475174031773 0
vt 30.618599284642926 -5.843617553171037 0
vt 30.618599284642926 -5.564624437521639 0
vt 31.55037113957158 -5.5590515749394305 0
vt 31.55037113957158 -5.8547632783354535 0
vt 32.589400407676656 -5.8547632783354535 0
vt 32.589400407676656 -5.561824545209805 0
vt 37.74009845775166 -5.547771239567714 0
vt 40.40818045459793 -5.547771239567714 0
vt 41.346413599476975 -5.540448444290609 0
vt 50.19970001153806 -5.5292488750432724 0
vt 51.12824122149153 -5.5292488750432724 0
vt 51.12824122149153 -6.4797315487865905 0
vt 50.74072535671709 -6.50896888581209 0
vt 50.74072535671709 -9.221472251067274 0
vt 51.120918426214416 -9.221472251067274 0
vt 51.120918426214416 -9.98185839006193 0
vt 55.566205145955976 -9.98185839006193 0
vt 55.54202915272494 -15.316433983308348 0
vt 55.54202915272494 -19.241667628168162 0
vt 55.54202915272494 -26.038540825352893 0
vt 55.54202915272494 -29.661466866658998 0
vt 55.54202915272494 -33.32523364485984 0
vt 55.61154186377451 -40.968401215337906 0
vt 50.88214684050618 -40.968401215337906 0
vt 50.88214684050618 -44.988885042883005 0
vt 37.21048805815164 -44.988885042883005 0
vt 11.138940809968856 -45.04579823852933 0
vt 9.839117726241307 -43.761751471097305 0
vt 7.466747432791053 -46.161151494173346 0
vt 5.10353063343718 -43.798634667897424 0
vt 2.7822045305949796 -41.42055690165767 0
vt 5.0812661051498065 -39.04767508941967 0
vt 6.4827198953886445 -37.75409791931083 0
vt 6.48514287912004 -35.062324525979804 0
vt 6.49470020383832 -34.040283066035954 0
vt 6.497984692896432 -32.596292450290406 0
vt 6.497984692896432 -29.013049498096255 0
vt 6.497984692896432 -25.344086765893643 0
vt 6.497984692896432 -21.812291834929447 0
vt 6.503261413022582 -18.815868620437694 0
vt 6.497984692896432 -15.400188454290234 0
vt 6.497984692896432 -11.11401099957695 0
vt 41.77279937264383 -8.978411028330763 0
vt 41.777736596684946 -5.878414959975389 0
vt 44.377733299176555 -5.8825558575582555 0
vt 45.41221219377737 -5.878414959975389 0
vt 48.01220889626898 -5.8825558575582555 0
vt 7.362197327988327 -45.70979784213504 0
vt 5.522987828153608 -43.872052371261084 0
vt 5.046901762433154 -43.394502276579864 0
vt 3.2076922625984343 -41.55675680570591 0
vt 44.37279607513544 -8.982551925913627 0
vt 45.40727496973626 -8.978411028330763 0
vt 48.007271672227866 -8.982551925913627 0
vt 9.553355389414962 -43.516894207716724 0
vt 7.714145889580243 -41.67914873684277 0
vt 7.238059823859788 -41.20159864216155 0
vt 5.3988503240250685 -39.363853171287595 0
vn 0 0 1
vn 0 0 -1
usemtl floor_1
s off
f 125/63/1 5/3/1 1/1/1
f 2/1/2 6/3/2 126/63/2
f 5/3/1 3/2/1 1/1/1
f 2/1/2 4/2/2 6/3/2
f 7/4/1 13/7/1 9/5/1
f 10/5/2 14/7/2 8/4/2
f 13/7/1 11/6/1 9/5/1
f 10/5/2 12/6/2 14/7/2
f 25/13/1 29/15/1 27/14/1
f 28/14/2 30/15/2 26/13/2
f 25/13/1 31/16/1 29/15/1
f 30/15/2 32/16/2 26/13/2
f 35/18/1 33/17/1 37/19/1
f 38/19/2 34/17/2 36/18/2
f 33/17/1 41/21/1 37/19/1
f 38/19/2 42/21/2 34/17/2
f 41/21/1 39/20/1 37/19/1
f 38/19/2 40/20/2 42/21/2
f 45/23/1 43/22/1 47/24/1
f 48/24/2 44/22/2 46/23/2
f 43/22/1 49/25/1 47/24/1
f 48/24/2 50/25/2 44/22/2
f 51/26/1 55/28/1 53/27/1
f 54/27/2 56/28/2 52/26/2
f 51/26/1 127/64/1 55/28/1
f 56/28/2 128/64/2 52/26/2
f 127/64/1 57/29/1 55/28/1
f 56/28/2 58/29/2 128/64/2
f 57/29/1 129/65/1 59/30/1
f 60/30/2 130/65/2 58/29/2
f 129/65/1 131/66/1 59/30/1
f 60/30/2 132/66/2 130/65/2
f 131/66/1 133/67/1 59/30/1
f 60/30/2 134/67/2 132/66/2
f 133/67/1 61/31/1 59/30/1
f 60/30/2 62/31/2 134/67/2
f 133/67/1 135/68/1 61/31/1
f 62/31/2 136/68/2 134/67/2
f 135/68/1 67/34/1 61/31/1
f 62/31/2 68/34/2 136/68/2
f 67/34/1 63/32/1 61/31/1
f 62/31/2 64/32/2 68/34/2
f 67/34/1 65/33/1 63/32/1
f 64/32/2 66/33/2 68/34/2
f 73/37/1 77/39/1 75/38/1
f 76/38/2 78/39/2 74/37/2
f 97/49/1 137/69/1 99/50/1
f 100/50/2 138/69/2 98/49/2
f 137/69/1 101/51/1 99/50/1
f 100/50/2 102/51/2 138/69/2
f 137/69/1 139/70/1 101/51/1
f 102/51/2 140/70/2 138/69/2
f 139/70/1 141/71/1 101/51/1
f 102/51/2 142/71/2 140/70/2
f 141/71/1 143/72/1 101/51/1
f 102/51/2 144/72/2 142/71/2
f 143/72/1 103/52/1 101/51/1
f 102/51/2 104/52/2 144/72/2
f 143/72/1 105/53/1 103/52/1
f 104/52/2 106/53/2 144/72/2
f 123/62/1 15/8/1 125/63/1
f 126/63/2 16/8/2 124/62/2
f 15/8/1 13/7/1 125/63/1
f 126/63/2 14/7/2 16/8/2
f 13/7/1 7/4/1 125/63/1
f 126/63/2 8/4/2 14/7/2
f 7/4/1 5/3/1 125/63/1
f 126/63/2 6/3/2 8/4/2
f 15/8/1 19/10/1 17/9/1
f 18/9/2 20/10/2 16/8/2
f 15/8/1 123/62/1 19/10/1
f 20/10/2 124/62/2 16/8/2
f 123/62/1 23/12/1 19/10/1
f 20/10/2 24/12/2 124/62/2
f 23/12/1 21/11/1 19/10/1
f 20/10/2 22/11/2 24/12/2
f 23/12/1 121/61/1 25/13/1
f 26/13/2 122/61/2 24/12/2
f 121/61/1 119/60/1 25/13/1
f 26/13/2 120/60/2 122/61/2
f 119/60/1 31/16/1 25/13/1
f 26/13/2 32/16/2 120/60/2
f 119/60/1 33/17/1 31/16/1
f 32/16/2 34/17/2 120/60/2
f 119/60/1 117/59/1 33/17/1
f 34/17/2 118/59/2 120/60/2
f 117/59/1 41/21/1 33/17/1
f 34/17/2 42/21/2 118/59/2
f 117/59/1 93/47/1 41/21/1
f 42/21/2 94/47/2 118/59/2
f 93/47/1 43/22/1 41/21/1
f 42/21/2 44/22/2 94/47/2
f 93/47/1 49/25/1 43/22/1
f 44/22/2 50/25/2 94/47/2
f 93/47/1 127/64/1 49/25/1
f 50/25/2 128/64/2 94/47/2
f 127/64/1 51/26/1 49/25/1
f 50/25/2 52/26/2 128/64/2
f 93/47/1 81/41/1 127/64/1
f 128/64/2 82/41/2 94/47/2
f 81/41/1 79/40/1 127/64/1
f 128/64/2 80/40/2 82/41/2
f 79/40/1 145/73/1 127/64/1
f 128/64/2 146/73/2 80/40/2
f 129/65/1 57/29/1 127/64/1
f 128/64/2 58/29/2 130/65/2
f 145/73/1 147/74/1 131/66/1
f 132/66/2 148/74/2 146/73/2
f 147/74/1 133/67/1 131/66/1
f 132/66/2 134/67/2 148/74/2
f 149/75/1 67/34/1 135/68/1
f 136/68/2 68/34/2 150/75/2
f 149/75/1 69/35/1 67/34/1
f 68/34/2 70/35/2 150/75/2
f 69/35/1 73/37/1 71/36/1
f 72/36/2 74/37/2 70/35/2
f 69/35/1 149/75/1 73/37/1
f 74/37/2 150/75/2 70/35/2
f 149/75/1 79/40/1 73/37/1
f 74/37/2 80/40/2 150/75/2
f 79/40/1 77/39/1 73/37/1
f 74/37/2 78/39/2 80/40/2
f 149/75/1 147/74/1 79/40/1
f 80/40/2 148/74/2 150/75/2
f 147/74/1 145/73/1 79/40/1
f 80/40/2 146/73/2 148/74/2
f 93/47/1 83/42/1 81/41/1
f 82/41/2 84/42/2 94/47/2
f 93/47/1 89/45/1 83/42/1
f 84/42/2 90/45/2 94/47/2
f 89/45/1 85/43/1 83/42/1
f 84/42/2 86/43/2 90/45/2
f 89/45/1 87/44/1 85/43/1
f 86/43/2 88/44/2 90/45/2
f 89/45/1 93/47/1 91/46/1
f 92/46/2 94/47/2 90/45/2
f 117/59/1 115/58/1 93/47/1
f 94/47/2 116/58/2 118/59/2
f 115/58/1 113/57/1 93/47/1
f 94/47/2 114/57/2 116/58/2
f 113/57/1 95/48/1 93/47/1
f 94/47/2 96/48/2 114/57/2
f 113/57/1 111/56/1 95/48/1
f 96/48/2 112/56/2 114/57/2
f 111/56/1 109/55/1 95/48/1
f 96/48/2 110/55/2 112/56/2
f 109/55/1 97/49/1 95/48/1
f 96/48/2 98/49/2 110/55/2
f 109/55/1 107/54/1 97/49/1
f 98/49/2 108/54/2 110/55/2
f 107/54/1 151/76/1 97/49/1
f 98/49/2 152/76/2 108/54/2
f 151/76/1 137/69/1 97/49/1
f 98/49/2 138/69/2 152/76/2
f 153/77/1 141/71/1 139/70/1
f 140/70/2 142/71/2 154/77/2
f 153/77/1 155/78/1 141/71/1
f 142/71/2 156/78/2 154/77/2
f 157/79/1 105/53/1 143/72/1
f 144/72/2 106/53/2 158/79/2
f 157/79/1 107/54/1 105/53/1
f 106/53/2 108/54/2 158/79/2
f 157/79/1 155/78/1 107/54/1
f 108/54/2 156/78/2 158/79/2
f 155/78/1 153/77/1 107/54/1
f 108/54/2 154/77/2 156/78/2
f 153/77/1 151/76/1 107/54/1
f 108/54/2 152/76/2 154/77/2
f 23/12/1 123/62/1 121/61/1
f 122/61/2 124/62/2 24/12/2
