# The Great Editor v0.0.1
mtllib floor_60.mtl
o floor_60
v 121.7 -4.5 0
v 121.7 -4.5 -0.1
v 121.7 -2.75 0
v 121.7 -2.75 -0.1
v 122.7 -2.75 0
v 122.7 -2.75 -0.1
v 122.7 -2.0 0
v 122.7 -2.0 -0.1
v 123.95 -2.0 0
v 123.95 -2.0 -0.1
v 123.95 -4.5 0
v 123.95 -4.5 -0.1
vt 121.7 -4.5 0
vt 121.7 -2.75 0
vt 122.7 -2.75 0
vt 122.7 -2.0 0
vt 123.95 -2.0 0
vt 123.95 -4.5 0
vn 0 0 1
vn 0 0 -1
usemtl floor_60
s off
f 1/1/1 5/3/1 3/2/1
f 4/2/2 6/3/2 2/1/2
f 5/3/1 9/5/1 7/4/1
f 8/4/2 10/5/2 6/3/2
f 5/3/1 11/6/1 9/5/1
f 10/5/2 12/6/2 6/3/2
f 11/6/1 5/3/1 1/1/1
f 2/1/2 6/3/2 12/6/2
