# The Great Editor v0.0.1
mtllib floor_2.mtl
o floor_2
v 11.7 -4.5 0
v 11.7 -4.5 -0.1
v 14.7 -4.5 0
v 14.7 -4.5 -0.1
v 14.7 -6.0 0
v 14.7 -6.0 -0.1
v 14.2 -6.0 0
v 14.2 -6.0 -0.1
v 14.2 -7.5 0
v 14.2 -7.5 -0.1
v 12.45 -7.5 0
v 12.45 -7.5 -0.1
v 12.45 -6.0 0
v 12.45 -6.0 -0.1
v 11.7 -6.0 0
v 11.7 -6.0 -0.1
vt 11.7 -4.5 0
vt 14.7 -4.5 0
vt 14.7 -6.0 0
vt 14.2 -6.0 0
vt 14.2 -7.5 0
vt 12.45 -7.5 0
vt 12.45 -6.0 0
vt 11.7 -6.0 0
vn 0 0 1
vn 0 0 -1
usemtl floor_2
s off
f 15/8/1 13/7/1 1/1/1
f 2/1/2 14/7/2 16/8/2
f 13/7/1 3/2/1 1/1/1
f 2/1/2 4/2/2 14/7/2
f 13/7/1 7/4/1 3/2/1
f 4/2/2 8/4/2 14/7/2
f 7/4/1 5/3/1 3/2/1
f 4/2/2 6/3/2 8/4/2
f 9/5/1 13/7/1 11/6/1
f 12/6/2 14/7/2 10/5/2
f 9/5/1 7/4/1 13/7/1
f 14/7/2 8/4/2 10/5/2
