# The Great Editor v0.0.1
mtllib floor_19.mtl
o floor_19
v 61.95 -9.25 0
v 61.95 -9.25 -0.1
v 62.95 -9.25 0
v 62.95 -9.25 -0.1
v 62.95 -10.25 0
v 62.95 -10.25 -0.1
v 64.95 -10.25 0
v 64.95 -10.25 -0.1
v 64.95 -9.25 0
v 64.95 -9.25 -0.1
v 68.45 -9.25 0
v 68.45 -9.25 -0.1
v 68.45 -10.25 0
v 68.45 -10.25 -0.1
v 70.45 -10.25 0
v 70.45 -10.25 -0.1
v 70.45 -9.25 0
v 70.45 -9.25 -0.1
v 71.45 -9.25 0
v 71.45 -9.25 -0.1
v 71.45 -16.75 0
v 71.45 -16.75 -0.1
v 68.2 -16.75 0
v 68.2 -16.75 -0.1
v 68.2 -20.5 0
v 68.2 -20.5 -0.1
v 67.95 -20.5 0
v 67.95 -20.5 -0.1
v 67.95 -21.75 0
v 67.95 -21.75 -0.1
v 68.2 -21.75 0
v 68.2 -21.75 -0.1
v 68.2 -23.25 0
v 68.2 -23.25 -0.1
v 67.95 -23.25 0
v 67.95 -23.25 -0.1
v 67.95 -28.25 0
v 67.95 -28.25 -0.1
v 69.2 -28.25 0
v 69.2 -28.25 -0.1
v 69.2 -30.5 0
v 69.2 -30.5 -0.1
v 67.45 -30.5 0
v 67.45 -30.5 -0.1
v 67.45 -29.75 0
v 67.45 -29.75 -0.1
v 65.45 -29.75 0
v 65.45 -29.75 -0.1
v 65.45 -30.5 0
v 65.45 -30.5 -0.1
v 63.95 -30.5 0
v 63.95 -30.5 -0.1
v 63.95 -28.25 0
v 63.95 -28.25 -0.1
v 65.45 -28.25 0
v 65.45 -28.25 -0.1
v 65.45 -23.25 0
v 65.45 -23.25 -0.1
v 65.2 -23.25 0
v 65.2 -23.25 -0.1
v 65.2 -21.75 0
v 65.2 -21.75 -0.1
v 65.45 -21.75 0
v 65.45 -21.75 -0.1
v 65.45 -20.5 0
v 65.45 -20.5 -0.1
v 65.2 -20.5 0
v 65.2 -20.5 -0.1
v 65.2 -16.75 0
v 65.2 -16.75 -0.1
v 61.95 -16.75 0
v 61.95 -16.75 -0.1
v 62.275000000000006 -12.925 0
v 62.275000000000006 -12.925 -0.1
v 62.275000000000006 -10.825 0
v 62.275000000000006 -10.825 -0.1
v 71.125 -10.825 0
v 71.125 -10.825 -0.1
v 71.125 -12.925 0
v 71.125 -12.925 -0.1
v 64.875 -16.175 0
v 64.875 -16.175 -0.1
v 62.275000000000006 -16.175 0
v 62.275000000000006 -16.175 -0.1
v 62.275000000000006 -14.075 0
v 62.275000000000006 -14.075 -0.1
v 62.300000000000004 -12.925 0
v 62.300000000000004 -12.925 -0.1
v 62.300000000000004 -10.825 0
v 62.300000000000004 -10.825 -0.1
v 64.875 -10.825 0
v 64.875 -10.825 -0.1
v 64.9 -10.825 0
v 64.9 -10.825 -0.1
v 68.525 -10.825 0
v 68.525 -10.825 -0.1
v 68.525 -12.925 0
v 68.525 -12.925 -0.1
v 68.525 -14.075 0
v 68.525 -14.075 -0.1
v 71.125 -14.075 0
v 71.125 -14.075 -0.1
v 71.125 -16.175 0
v 71.125 -16.175 -0.1
v 68.525 -16.175 0
v 68.525 -16.175 -0.1
v 64.875 -14.075 0
v 64.875 -14.075 -0.1
v 64.875 -12.925 0
v 64.875 -12.925 -0.1
v 64.9 -12.925 0
v 64.9 -12.925 -0.1
v 67.95 -27.625000000000004 0
v 67.95 -27.625000000000004 -0.1
v 65.45 -27.625000000000004 0
v 65.45 -27.625000000000004 -0.1
v 67.95 -25.025000000000002 0
v 67.95 -25.025000000000002 -0.1
v 65.45 -25.025000000000002 0
v 65.45 -25.025000000000002 -0.1
vt 61.95 -9.25 0
vt 62.95 -9.25 0
vt 62.95 -10.25 0
vt 64.95 -10.25 0
vt 64.95 -9.25 0
vt 68.45 -9.25 0
vt 68.45 -10.25 0
vt 70.45 -10.25 0
vt 70.45 -9.25 0
vt 71.45 -9.25 0
vt 71.45 -16.75 0
vt 68.2 -16.75 0
vt 68.2 -20.5 0
vt 67.95 -20.5 0
vt 67.95 -21.75 0
vt 68.2 -21.75 0
vt 68.2 -23.25 0
vt 67.95 -23.25 0
vt 67.95 -28.25 0
vt 69.2 -28.25 0
vt 69.2 -30.5 0
vt 67.45 -30.5 0
vt 67.45 -29.75 0
vt 65.45 -29.75 0
vt 65.45 -30.5 0
vt 63.95 -30.5 0
vt 63.95 -28.25 0
vt 65.45 -28.25 0
vt 65.45 -23.25 0
vt 65.2 -23.25 0
vt 65.2 -21.75 0
vt 65.45 -21.75 0
vt 65.45 -20.5 0
vt 65.2 -20.5 0
vt 65.2 -16.75 0
vt 61.95 -16.75 0
vt 62.275000000000006 -12.925 0
vt 62.275000000000006 -10.825 0
vt 71.125 -10.825 0
vt 71.125 -12.925 0
vt 64.875 -16.175 0
vt 62.275000000000006 -16.175 0
vt 62.275000000000006 -14.075 0
vt 62.300000000000004 -12.925 0
vt 62.300000000000004 -10.825 0
vt 64.875 -10.825 0
vt 64.9 -10.825 0
vt 68.525 -10.825 0
vt 68.525 -12.925 0
vt 68.525 -14.075 0
vt 71.125 -14.075 0
vt 71.125 -16.175 0
vt 68.525 -16.175 0
vt 64.875 -14.075 0
vt 64.875 -12.925 0
vt 64.9 -12.925 0
vt 67.95 -27.625000000000004 0
vt 65.45 -27.625000000000004 0
vt 67.95 -25.025000000000002 0
vt 65.45 -25.025000000000002 0
vn 0 0 1
vn 0 0 -1
usemtl floor_19
s off
f 71/36/1 73/37/1 1/1/1
f 2/1/2 74/37/2 72/36/2
f 73/37/1 75/38/1 1/1/1
f 2/1/2 76/38/2 74/37/2
f 75/38/1 5/3/1 1/1/1
f 2/1/2 6/3/2 76/38/2
f 5/3/1 3/2/1 1/1/1
f 2/1/2 4/2/2 6/3/2
f 7/4/1 13/7/1 9/5/1
f 10/5/2 14/7/2 8/4/2
f 13/7/1 11/6/1 9/5/1
f 10/5/2 12/6/2 14/7/2
f 15/8/1 19/10/1 17/9/1
f 18/9/2 20/10/2 16/8/2
f 15/8/1 77/39/1 19/10/1
f 20/10/2 78/39/2 16/8/2
f 77/39/1 79/40/1 19/10/1
f 20/10/2 80/40/2 78/39/2
f 79/40/1 21/11/1 19/10/1
f 20/10/2 22/11/2 80/40/2
f 41/21/1 45/23/1 43/22/1
f 44/22/2 46/23/2 42/21/2
f 47/24/1 51/26/1 49/25/1
f 50/25/2 52/26/2 48/24/2
f 47/24/1 53/27/1 51/26/1
f 52/26/2 54/27/2 48/24/2
f 69/35/1 81/41/1 71/36/1
f 72/36/2 82/41/2 70/35/2
f 81/41/1 83/42/1 71/36/1
f 72/36/2 84/42/2 82/41/2
f 83/42/1 85/43/1 71/36/1
f 72/36/2 86/43/2 84/42/2
f 85/43/1 73/37/1 71/36/1
f 72/36/2 74/37/2 86/43/2
f 85/43/1 87/44/1 73/37/1
f 74/37/2 88/44/2 86/43/2
f 89/45/1 5/3/1 75/38/1
f 76/38/2 6/3/2 90/45/2
f 89/45/1 91/46/1 5/3/1
f 6/3/2 92/46/2 90/45/2
f 91/46/1 7/4/1 5/3/1
f 6/3/2 8/4/2 92/46/2
f 91/46/1 93/47/1 7/4/1
f 8/4/2 94/47/2 92/46/2
f 93/47/1 13/7/1 7/4/1
f 8/4/2 14/7/2 94/47/2
f 93/47/1 95/48/1 13/7/1
f 14/7/2 96/48/2 94/47/2
f 95/48/1 15/8/1 13/7/1
f 14/7/2 16/8/2 96/48/2
f 95/48/1 77/39/1 15/8/1
f 16/8/2 78/39/2 96/48/2
f 97/49/1 99/50/1 79/40/1
f 80/40/2 100/50/2 98/49/2
f 99/50/1 101/51/1 79/40/1
f 80/40/2 102/51/2 100/50/2
f 101/51/1 21/11/1 79/40/1
f 80/40/2 22/11/2 102/51/2
f 101/51/1 103/52/1 21/11/1
f 22/11/2 104/52/2 102/51/2
f 103/52/1 23/12/1 21/11/1
f 22/11/2 24/12/2 104/52/2
f 39/20/1 45/23/1 41/21/1
f 42/21/2 46/23/2 40/20/2
f 39/20/1 37/19/1 45/23/1
f 46/23/2 38/19/2 40/20/2
f 37/19/1 55/28/1 45/23/1
f 46/23/2 56/28/2 38/19/2
f 55/28/1 47/24/1 45/23/1
f 46/23/2 48/24/2 56/28/2
f 55/28/1 53/27/1 47/24/1
f 48/24/2 54/27/2 56/28/2
f 57/29/1 61/31/1 59/30/1
f 60/30/2 62/31/2 58/29/2
f 57/29/1 63/32/1 61/31/1
f 62/31/2 64/32/2 58/29/2
f 65/33/1 69/35/1 67/34/1
f 68/34/2 70/35/2 66/33/2
f 65/33/1 27/14/1 69/35/1
f 70/35/2 28/14/2 66/33/2
f 27/14/1 23/12/1 69/35/1
f 70/35/2 24/12/2 28/14/2
f 23/12/1 81/41/1 69/35/1
f 70/35/2 82/41/2 24/12/2
f 23/12/1 105/53/1 81/41/1
f 82/41/2 106/53/2 24/12/2
f 105/53/1 107/54/1 81/41/1
f 82/41/2 108/54/2 106/53/2
f 107/54/1 87/44/1 85/43/1
f 86/43/2 88/44/2 108/54/2
f 107/54/1 109/55/1 87/44/1
f 88/44/2 110/55/2 108/54/2
f 111/56/1 97/49/1 93/47/1
f 94/47/2 98/49/2 112/56/2
f 97/49/1 95/48/1 93/47/1
f 94/47/2 96/48/2 98/49/2
f 111/56/1 99/50/1 97/49/1
f 98/49/2 100/50/2 112/56/2
f 111/56/1 107/54/1 99/50/1
f 100/50/2 108/54/2 112/56/2
f 107/54/1 105/53/1 99/50/1
f 100/50/2 106/53/2 108/54/2
f 105/53/1 23/12/1 103/52/1
f 104/52/2 24/12/2 106/53/2
f 111/56/1 109/55/1 107/54/1
f 108/54/2 110/55/2 112/56/2
f 27/14/1 25/13/1 23/12/1
f 24/12/2 26/13/2 28/14/2
f 29/15/1 33/17/1 31/16/1
f 32/16/2 34/17/2 30/15/2
f 29/15/1 35/18/1 33/17/1
f 34/17/2 36/18/2 30/15/2
f 113/57/1 115/58/1 37/19/1
f 38/19/2 116/58/2 114/57/2
f 115/58/1 55/28/1 37/19/1
f 38/19/2 56/28/2 116/58/2
f 117/59/1 35/18/1 119/60/1
f 120/60/2 36/18/2 118/59/2
f 35/18/1 57/29/1 119/60/1
f 120/60/2 58/29/2 36/18/2
f 35/18/1 63/32/1 57/29/1
f 58/29/2 64/32/2 36/18/2
f 35/18/1 29/15/1 63/32/1
f 64/32/2 30/15/2 36/18/2
f 29/15/1 65/33/1 63/32/1
f 64/32/2 66/33/2 30/15/2
f 29/15/1 27/14/1 65/33/1
f 66/33/2 28/14/2 30/15/2
