# The Great Editor v0.0.1
mtllib floor_57.mtl
o floor_57
v 108.95 -9.5 0
v 108.95 -9.5 -0.1
v 110.45 -9.5 0
v 110.45 -9.5 -0.1
v 110.45 -12.25 0
v 110.45 -12.25 -0.1
v 110.95 -12.25 0
v 110.95 -12.25 -0.1
v 110.95 -16.5 0
v 110.95 -16.5 -0.1
v 106.45 -16.5 0
v 106.45 -16.5 -0.1
v 106.45 -12.25 0
v 106.45 -12.25 -0.1
v 108.95 -12.25 0
v 108.95 -12.25 -0.1
vt 108.95 -9.5 0
vt 110.45 -9.5 0
vt 110.45 -12.25 0
vt 110.95 -12.25 0
vt 110.95 -16.5 0
vt 106.45 -16.5 0
vt 106.45 -12.25 0
vt 108.95 -12.25 0
vn 0 0 1
vn 0 0 -1
usemtl floor_57
s off
f 11/6/1 15/8/1 13/7/1
f 14/7/2 16/8/2 12/6/2
f 15/8/1 5/3/1 1/1/1
f 2/1/2 6/3/2 16/8/2
f 5/3/1 3/2/1 1/1/1
f 2/1/2 4/2/2 6/3/2
f 9/5/1 15/8/1 11/6/1
f 12/6/2 16/8/2 10/5/2
f 9/5/1 5/3/1 15/8/1
f 16/8/2 6/3/2 10/5/2
f 9/5/1 7/4/1 5/3/1
f 6/3/2 8/4/2 10/5/2
