# The Great Editor v0.0.1
mtllib floor_10.mtl
o floor_10
v 12.0 -2.0 0
v 12.0 -2.0 -0.1
v 12.0 -3.4000000000000004 0
v 12.0 -3.4000000000000004 -0.1
v 22.900000000000002 -3.4000000000000004 0
v 22.900000000000002 -3.4000000000000004 -0.1
v 22.900000000000002 -6.6000000000000005 0
v 22.900000000000002 -6.6000000000000005 -0.1
v 27.450000000000003 -6.6000000000000005 0
v 27.450000000000003 -6.6000000000000005 -0.1
v 27.450000000000003 -2.0 0
v 27.450000000000003 -2.0 -0.1
vt 12.0 -2.0 0
vt 12.0 -3.4000000000000004 0
vt 22.900000000000002 -3.4000000000000004 0
vt 22.900000000000002 -6.6000000000000005 0
vt 27.450000000000003 -6.6000000000000005 0
vt 27.450000000000003 -2.0 0
vn 0 0 1
vn 0 0 -1
usemtl floor_10
s off
f 3/2/1 5/3/1 1/1/1
f 2/1/2 6/3/2 4/2/2
f 5/3/1 11/6/1 1/1/1
f 2/1/2 12/6/2 6/3/2
f 5/3/1 9/5/1 11/6/1
f 12/6/2 10/5/2 6/3/2
f 9/5/1 5/3/1 7/4/1
f 8/4/2 6/3/2 10/5/2
