# The Great Editor v0.0.1
mtllib floor_18.mtl
o floor_18
v 57.7 -7.5 0
v 57.7 -7.5 -0.1
v 57.7 -2.0 0
v 57.7 -2.0 -0.1
v 69.45 -2.0 0
v 69.45 -2.0 -0.1
v 69.45 -7.5 0
v 69.45 -7.5 -0.1
v 60.775000000000006 -4.675 0
v 60.775000000000006 -4.675 -0.1
v 60.775000000000006 -2.325 0
v 60.775000000000006 -2.325 -0.1
v 62.875 -2.325 0
v 62.875 -2.325 -0.1
v 62.875 -4.675 0
v 62.875 -4.675 -0.1
vt 57.7 -7.5 0
vt 57.7 -2.0 0
vt 69.45 -2.0 0
vt 69.45 -7.5 0
vt 60.775000000000006 -4.675 0
vt 60.775000000000006 -2.325 0
vt 62.875 -2.325 0
vt 62.875 -4.675 0
vn 0 0 1
vn 0 0 -1
usemtl floor_18
s off
f 1/1/1 9/5/1 3/2/1
f 4/2/2 10/5/2 2/1/2
f 9/5/1 11/6/1 3/2/1
f 4/2/2 12/6/2 10/5/2
f 11/6/1 13/7/1 3/2/1
f 4/2/2 14/7/2 12/6/2
f 13/7/1 5/3/1 3/2/1
f 4/2/2 6/3/2 14/7/2
f 13/7/1 15/8/1 5/3/1
f 6/3/2 16/8/2 14/7/2
f 15/8/1 7/4/1 5/3/1
f 6/3/2 8/4/2 16/8/2
f 7/4/1 15/8/1 1/1/1
f 2/1/2 16/8/2 8/4/2
f 15/8/1 9/5/1 1/1/1
f 2/1/2 10/5/2 16/8/2
