# The Great Editor v0.0.1
mtllib floor_35.mtl
o floor_35
v 22.95 -9.5 0
v 22.95 -9.5 -0.1
v 22.95 -12.25 0
v 22.95 -12.25 -0.1
v 22.45 -12.25 0
v 22.45 -12.25 -0.1
v 22.45 -16.5 0
v 22.45 -16.5 -0.1
v 27.2 -16.5 0
v 27.2 -16.5 -0.1
v 27.2 -12.25 0
v 27.2 -12.25 -0.1
v 24.45 -12.25 0
v 24.45 -12.25 -0.1
v 24.45 -9.5 0
v 24.45 -9.5 -0.1
vt 22.95 -9.5 0
vt 22.95 -12.25 0
vt 22.45 -12.25 0
vt 22.45 -16.5 0
vt 27.2 -16.5 0
vt 27.2 -12.25 0
vt 24.45 -12.25 0
vt 24.45 -9.5 0
vn 0 0 1
vn 0 0 -1
usemtl floor_35
s off
f 3/2/1 13/7/1 1/1/1
f 2/1/2 14/7/2 4/2/2
f 13/7/1 15/8/1 1/1/1
f 2/1/2 16/8/2 14/7/2
f 13/7/1 9/5/1 11/6/1
f 12/6/2 10/5/2 14/7/2
f 9/5/1 13/7/1 7/4/1
f 8/4/2 14/7/2 10/5/2
f 13/7/1 3/2/1 7/4/1
f 8/4/2 4/2/2 14/7/2
f 3/2/1 5/3/1 7/4/1
f 8/4/2 6/3/2 4/2/2
