# The Great Editor v0.0.1
mtllib floor_4.mtl
o floor_4
v 12.45 -7.5 0
v 12.45 -7.5 -0.1
v 12.45 -9.25 0
v 12.45 -9.25 -0.1
v 22.95 -9.25 0
v 22.95 -9.25 -0.1
v 22.95 -9.5 0
v 22.95 -9.5 -0.1
v 24.45 -9.5 0
v 24.45 -9.5 -0.1
v 24.45 -9.25 0
v 24.45 -9.25 -0.1
v 26.2 -9.25 0
v 26.2 -9.25 -0.1
v 29.2 -9.25 0
v 29.2 -9.25 -0.1
v 48.45 -9.25 0
v 48.45 -9.25 -0.1
v 54.95 -9.25 0
v 54.95 -9.25 -0.1
v 54.95 -9.5 0
v 54.95 -9.5 -0.1
v 56.7 -9.5 0
v 56.7 -9.5 -0.1
v 56.7 -9.25 0
v 56.7 -9.25 -0.1
v 57.45 -9.25 0
v 57.45 -9.25 -0.1
v 57.7 -7.5 0
v 57.7 -7.5 -0.1
vt 12.45 -7.5 0
vt 12.45 -9.25 0
vt 22.95 -9.25 0
vt 22.95 -9.5 0
vt 24.45 -9.5 0
vt 24.45 -9.25 0
vt 26.2 -9.25 0
vt 29.2 -9.25 0
vt 48.45 -9.25 0
vt 54.95 -9.25 0
vt 54.95 -9.5 0
vt 56.7 -9.5 0
vt 56.7 -9.25 0
vt 57.45 -9.25 0
vt 57.7 -7.5 0
vn 0 0 1
vn 0 0 -1
usemtl floor_4
s off
f 3/2/1 5/3/1 1/1/1
f 2/1/2 6/3/2 4/2/2
f 5/3/1 11/6/1 1/1/1
f 2/1/2 12/6/2 6/3/2
f 11/6/1 13/7/1 1/1/1
f 2/1/2 14/7/2 12/6/2
f 13/7/1 15/8/1 1/1/1
f 2/1/2 16/8/2 14/7/2
f 15/8/1 29/15/1 1/1/1
f 2/1/2 30/15/2 16/8/2
f 15/8/1 17/9/1 29/15/1
f 30/15/2 18/9/2 16/8/2
f 17/9/1 19/10/1 29/15/1
f 30/15/2 20/10/2 18/9/2
f 19/10/1 25/13/1 29/15/1
f 30/15/2 26/13/2 20/10/2
f 25/13/1 27/14/1 29/15/1
f 30/15/2 28/14/2 26/13/2
f 11/6/1 5/3/1 9/5/1
f 10/5/2 6/3/2 12/6/2
f 5/3/1 7/4/1 9/5/1
f 10/5/2 8/4/2 6/3/2
f 21/11/1 23/12/1 19/10/1
f 20/10/2 24/12/2 22/11/2
f 23/12/1 25/13/1 19/10/1
f 20/10/2 26/13/2 24/12/2
