# The Great Editor v0.0.1
mtllib floor_68.mtl
o floor_68
v 111.2 -2.0 0
v 111.2 -2.0 -0.1
v 116.45 -2.0 0
v 116.45 -2.0 -0.1
v 116.45 -4.5 0
v 116.45 -4.5 -0.1
v 118.7 -4.5 0
v 118.7 -4.5 -0.1
v 118.7 -6.0 0
v 118.7 -6.0 -0.1
v 116.45 -6.0 0
v 116.45 -6.0 -0.1
v 116.45 -6.75 0
v 116.45 -6.75 -0.1
v 111.2 -6.75 0
v 111.2 -6.75 -0.1
vt 111.2 -2.0 0
vt 116.45 -2.0 0
vt 116.45 -4.5 0
vt 118.7 -4.5 0
vt 118.7 -6.0 0
vt 116.45 -6.0 0
vt 116.45 -6.75 0
vt 111.2 -6.75 0
vn 0 0 1
vn 0 0 -1
usemtl floor_68
s off
f 15/8/1 5/3/1 1/1/1
f 2/1/2 6/3/2 16/8/2
f 5/3/1 3/2/1 1/1/1
f 2/1/2 4/2/2 6/3/2
f 5/3/1 9/5/1 7/4/1
f 8/4/2 10/5/2 6/3/2
f 11/6/1 15/8/1 13/7/1
f 14/7/2 16/8/2 12/6/2
f 11/6/1 5/3/1 15/8/1
f 16/8/2 6/3/2 12/6/2
f 11/6/1 9/5/1 5/3/1
f 6/3/2 10/5/2 12/6/2
