# The Great Editor v0.0.1
mtllib floor_1.mtl
o floor_1
v 24.6 -5.0 0
v 24.6 -5.0 -0.1
v 24.6 -7.9 0
v 24.6 -7.9 -0.1
v 26.1 -7.9 0
v 26.1 -7.9 -0.1
v 26.1 -12.65 0
v 26.1 -12.65 -0.1
v 24.6 -12.65 0
v 24.6 -12.65 -0.1
v 24.6 -15.450000000000001 0
v 24.6 -15.450000000000001 -0.1
v 26.1 -15.450000000000001 0
v 26.1 -15.450000000000001 -0.1
v 26.1 -17.45 0
v 26.1 -17.45 -0.1
v 24.6 -17.45 0
v 24.6 -17.45 -0.1
v 24.6 -20.25 0
v 24.6 -20.25 -0.1
v 26.1 -20.25 0
v 26.1 -20.25 -0.1
v 26.1 -25.0 0
v 26.1 -25.0 -0.1
v 24.6 -25.0 0
v 24.6 -25.0 -0.1
v 24.6 -27.5 0
v 24.6 -27.5 -0.1
v 47.1 -27.5 0
v 47.1 -27.5 -0.1
v 47.1 -24.650000000000002 0
v 47.1 -24.650000000000002 -0.1
v 47.35 -24.650000000000002 0
v 47.35 -24.650000000000002 -0.1
v 47.35 -19.900000000000002 0
v 47.35 -19.900000000000002 -0.1
v 47.1 -19.900000000000002 0
v 47.1 -19.900000000000002 -0.1
v 47.1 -13.100000000000001 0
v 47.1 -13.100000000000001 -0.1
v 47.35 -13.100000000000001 0
v 47.35 -13.100000000000001 -0.1
v 47.35 -8.35 0
v 47.35 -8.35 -0.1
v 47.1 -8.35 0
v 47.1 -8.35 -0.1
v 47.1 -5.0 0
v 47.1 -5.0 -0.1
vt 24.6 -5.0 0
vt 24.6 -7.9 0
vt 26.1 -7.9 0
vt 26.1 -12.65 0
vt 24.6 -12.65 0
vt 24.6 -15.450000000000001 0
vt 26.1 -15.450000000000001 0
vt 26.1 -17.45 0
vt 24.6 -17.45 0
vt 24.6 -20.25 0
vt 26.1 -20.25 0
vt 26.1 -25.0 0
vt 24.6 -25.0 0
vt 24.6 -27.5 0
vt 47.1 -27.5 0
vt 47.1 -24.650000000000002 0
vt 47.35 -24.650000000000002 0
vt 47.35 -19.900000000000002 0
vt 47.1 -19.900000000000002 0
vt 47.1 -13.100000000000001 0
vt 47.35 -13.100000000000001 0
vt 47.35 -8.35 0
vt 47.1 -8.35 0
vt 47.1 -5.0 0
vn 0 0 1
vn 0 0 -1
usemtl floor_1
s off
f 3/2/1 5/3/1 1/1/1
f 2/1/2 6/3/2 4/2/2
f 5/3/1 47/24/1 1/1/1
f 2/1/2 48/24/2 6/3/2
f 5/3/1 45/23/1 47/24/1
f 48/24/2 46/23/2 6/3/2
f 31/16/1 23/12/1 29/15/1
f 30/15/2 24/12/2 32/16/2
f 23/12/1 27/14/1 29/15/1
f 30/15/2 28/14/2 24/12/2
f 23/12/1 25/13/1 27/14/1
f 28/14/2 26/13/2 24/12/2
f 21/11/1 17/9/1 19/10/1
f 20/10/2 18/9/2 22/11/2
f 21/11/1 15/8/1 17/9/1
f 18/9/2 16/8/2 22/11/2
f 13/7/1 9/5/1 11/6/1
f 12/6/2 10/5/2 14/7/2
f 13/7/1 7/4/1 9/5/1
f 10/5/2 8/4/2 14/7/2
f 7/4/1 45/23/1 5/3/1
f 6/3/2 46/23/2 8/4/2
f 7/4/1 39/20/1 45/23/1
f 46/23/2 40/20/2 8/4/2
f 39/20/1 41/21/1 45/23/1
f 46/23/2 42/21/2 40/20/2
f 41/21/1 43/22/1 45/23/1
f 46/23/2 44/22/2 42/21/2
f 37/19/1 33/17/1 35/18/1
f 36/18/2 34/17/2 38/19/2
f 37/19/1 31/16/1 33/17/1
f 34/17/2 32/16/2 38/19/2
f 37/19/1 21/11/1 31/16/1
f 32/16/2 22/11/2 38/19/2
f 21/11/1 23/12/1 31/16/1
f 32/16/2 24/12/2 22/11/2
f 37/19/1 15/8/1 21/11/1
f 22/11/2 16/8/2 38/19/2
f 37/19/1 39/20/1 15/8/1
f 16/8/2 40/20/2 38/19/2
f 39/20/1 13/7/1 15/8/1
f 16/8/2 14/7/2 40/20/2
f 39/20/1 7/4/1 13/7/1
f 14/7/2 8/4/2 40/20/2
