# The Great Editor v0.0.1
mtllib floor_39.mtl
o floor_39
v 62.7 -28.25 0
v 62.7 -28.25 -0.1
v 64.7 -28.25 0
v 64.7 -28.25 -0.1
v 64.7 -26.5 0
v 64.7 -26.5 -0.1
v 63.7 -26.5 0
v 63.7 -26.5 -0.1
v 63.7 -25.0 0
v 63.7 -25.0 -0.1
v 64.7 -25.0 0
v 64.7 -25.0 -0.1
v 64.7 -23.25 0
v 64.7 -23.25 -0.1
v 62.7 -23.25 0
v 62.7 -23.25 -0.1
v 62.7 -25.025000000000002 0
v 62.7 -25.025000000000002 -0.1
v 62.7 -27.625000000000004 0
v 62.7 -27.625000000000004 -0.1
v 64.7 -27.625000000000004 0
v 64.7 -27.625000000000004 -0.1
v 63.7 -25.025000000000002 0
v 63.7 -25.025000000000002 -0.1
vt 62.7 -28.25 0
vt 64.7 -28.25 0
vt 64.7 -26.5 0
vt 63.7 -26.5 0
vt 63.7 -25.0 0
vt 64.7 -25.0 0
vt 64.7 -23.25 0
vt 62.7 -23.25 0
vt 62.7 -25.025000000000002 0
vt 62.7 -27.625000000000004 0
vt 64.7 -27.625000000000004 0
vt 63.7 -25.025000000000002 0
vn 0 0 1
vn 0 0 -1
usemtl floor_39
s off
f 17/9/1 9/5/1 15/8/1
f 16/8/2 10/5/2 18/9/2
f 9/5/1 13/7/1 15/8/1
f 16/8/2 14/7/2 10/5/2
f 9/5/1 11/6/1 13/7/1
f 14/7/2 12/6/2 10/5/2
f 3/2/1 19/10/1 1/1/1
f 2/1/2 20/10/2 4/2/2
f 3/2/1 21/11/1 19/10/1
f 20/10/2 22/11/2 4/2/2
f 23/12/1 9/5/1 17/9/1
f 18/9/2 10/5/2 24/12/2
