# The Great Editor v0.0.1
mtllib floor_40.mtl
o floor_40
v 68.7 -23.25 0
v 68.7 -23.25 -0.1
v 70.7 -23.25 0
v 70.7 -23.25 -0.1
v 70.7 -28.25 0
v 70.7 -28.25 -0.1
v 68.7 -28.25 0
v 68.7 -28.25 -0.1
v 68.7 -26.5 0
v 68.7 -26.5 -0.1
v 69.7 -26.5 0
v 69.7 -26.5 -0.1
v 69.7 -25.0 0
v 69.7 -25.0 -0.1
v 68.7 -25.0 0
v 68.7 -25.0 -0.1
v 70.7 -25.025000000000002 0
v 70.7 -25.025000000000002 -0.1
v 68.7 -27.625000000000004 0
v 68.7 -27.625000000000004 -0.1
v 70.7 -27.625000000000004 0
v 70.7 -27.625000000000004 -0.1
v 69.7 -25.025000000000002 0
v 69.7 -25.025000000000002 -0.1
vt 68.7 -23.25 0
vt 70.7 -23.25 0
vt 70.7 -28.25 0
vt 68.7 -28.25 0
vt 68.7 -26.5 0
vt 69.7 -26.5 0
vt 69.7 -25.0 0
vt 68.7 -25.0 0
vt 70.7 -25.025000000000002 0
vt 68.7 -27.625000000000004 0
vt 70.7 -27.625000000000004 0
vt 69.7 -25.025000000000002 0
vn 0 0 1
vn 0 0 -1
usemtl floor_40
s off
f 15/8/1 13/7/1 1/1/1
f 2/1/2 14/7/2 16/8/2
f 13/7/1 3/2/1 1/1/1
f 2/1/2 4/2/2 14/7/2
f 13/7/1 17/9/1 3/2/1
f 4/2/2 18/9/2 14/7/2
f 5/3/1 19/10/1 7/4/1
f 8/4/2 20/10/2 6/3/2
f 5/3/1 21/11/1 19/10/1
f 20/10/2 22/11/2 6/3/2
f 23/12/1 17/9/1 13/7/1
f 14/7/2 18/9/2 24/12/2
