# The Great Editor v0.0.1
mtllib floor_5.mtl
o floor_5
v 83.1 -3.25 0
v 83.1 -3.25 -0.1
v 83.1 -15.5 0
v 83.1 -15.5 -0.1
v 104.2 -15.5 0
v 104.2 -15.5 -0.1
v 104.2 -3.25 0
v 104.2 -3.25 -0.1
v 100.2 -3.25 0
v 100.2 -3.25 -0.1
v 100.2 -4.75 0
v 100.2 -4.75 -0.1
v 97.7 -4.75 0
v 97.7 -4.75 -0.1
v 97.7 -3.25 0
v 97.7 -3.25 -0.1
v 89.6 -3.25 0
v 89.6 -3.25 -0.1
v 89.6 -4.75 0
v 89.6 -4.75 -0.1
v 87.1 -4.75 0
v 87.1 -4.75 -0.1
v 87.1 -3.25 0
v 87.1 -3.25 -0.1
vt 83.1 -3.25 0
vt 83.1 -15.5 0
vt 104.2 -15.5 0
vt 104.2 -3.25 0
vt 100.2 -3.25 0
vt 100.2 -4.75 0
vt 97.7 -4.75 0
vt 97.7 -3.25 0
vt 89.6 -3.25 0
vt 89.6 -4.75 0
vt 87.1 -4.75 0
vt 87.1 -3.25 0
vn 0 0 1
vn 0 0 -1
usemtl floor_5
s off
f 3/2/1 21/11/1 1/1/1
f 2/1/2 22/11/2 4/2/2
f 21/11/1 23/12/1 1/1/1
f 2/1/2 24/12/2 22/11/2
f 19/10/1 13/7/1 17/9/1
f 18/9/2 14/7/2 20/10/2
f 13/7/1 15/8/1 17/9/1
f 18/9/2 16/8/2 14/7/2
f 11/6/1 7/4/1 9/5/1
f 10/5/2 8/4/2 12/6/2
f 11/6/1 5/3/1 7/4/1
f 8/4/2 6/3/2 12/6/2
f 11/6/1 13/7/1 5/3/1
f 6/3/2 14/7/2 12/6/2
f 13/7/1 3/2/1 5/3/1
f 6/3/2 4/2/2 14/7/2
f 13/7/1 19/10/1 3/2/1
f 4/2/2 20/10/2 14/7/2
f 19/10/1 21/11/1 3/2/1
f 4/2/2 22/11/2 20/10/2
