# The Great Editor v0.0.1
mtllib floor_74.mtl
o floor_74
v 128.7 -33.5 0
v 128.7 -33.5 -0.1
v 128.7 -32.0 0
v 128.7 -32.0 -0.1
v 126.45 -32.0 0
v 126.45 -32.0 -0.1
v 126.45 -31.5 0
v 126.45 -31.5 -0.1
v 122.2 -31.5 0
v 122.2 -31.5 -0.1
v 122.2 -30.5 0
v 122.2 -30.5 -0.1
v 120.7 -30.5 0
v 120.7 -30.5 -0.1
v 120.7 -33.5 0
v 120.7 -33.5 -0.1
v 120.2 -33.5 0
v 120.2 -33.5 -0.1
v 120.2 -36.5 0
v 120.2 -36.5 -0.1
v 126.2 -36.5 0
v 126.2 -36.5 -0.1
v 126.2 -33.5 0
v 126.2 -33.5 -0.1
vt 128.7 -33.5 0
vt 128.7 -32.0 0
vt 126.45 -32.0 0
vt 126.45 -31.5 0
vt 122.2 -31.5 0
vt 122.2 -30.5 0
vt 120.7 -30.5 0
vt 120.7 -33.5 0
vt 120.2 -33.5 0
vt 120.2 -36.5 0
vt 126.2 -36.5 0
vt 126.2 -33.5 0
vn 0 0 1
vn 0 0 -1
usemtl floor_74
s off
f 15/8/1 9/5/1 13/7/1
f 14/7/2 10/5/2 16/8/2
f 9/5/1 11/6/1 13/7/1
f 14/7/2 12/6/2 10/5/2
f 9/5/1 5/3/1 7/4/1
f 8/4/2 6/3/2 10/5/2
f 5/3/1 1/1/1 3/2/1
f 4/2/2 2/1/2 6/3/2
f 23/12/1 15/8/1 21/11/1
f 22/11/2 16/8/2 24/12/2
f 15/8/1 19/10/1 21/11/1
f 22/11/2 20/10/2 16/8/2
f 15/8/1 17/9/1 19/10/1
f 20/10/2 18/9/2 16/8/2
f 23/12/1 9/5/1 15/8/1
f 16/8/2 10/5/2 24/12/2
f 23/12/1 5/3/1 9/5/1
f 10/5/2 6/3/2 24/12/2
f 23/12/1 1/1/1 5/3/1
f 6/3/2 2/1/2 24/12/2
