# The Great Editor v0.0.1
mtllib floor_19.mtl
o floor_19
v 61.95 -9.25 0
v 61.95 -9.25 -0.1
v 62.95 -9.25 0
v 62.95 -9.25 -0.1
v 62.95 -10.25 0
v 62.95 -10.25 -0.1
v 64.95 -10.25 0
v 64.95 -10.25 -0.1
v 64.95 -9.25 0
v 64.95 -9.25 -0.1
v 68.45 -9.25 0
v 68.45 -9.25 -0.1
v 68.45 -10.25 0
v 68.45 -10.25 -0.1
v 70.45 -10.25 0
v 70.45 -10.25 -0.1
v 70.45 -9.25 0
v 70.45 -9.25 -0.1
v 71.45 -9.25 0
v 71.45 -9.25 -0.1
v 71.45 -16.75 0
v 71.45 -16.75 -0.1
v 68.2 -16.75 0
v 68.2 -16.75 -0.1
v 68.2 -20.5 0
v 68.2 -20.5 -0.1
v 67.95 -20.5 0
v 67.95 -20.5 -0.1
v 67.95 -21.75 0
v 67.95 -21.75 -0.1
v 68.2 -21.75 0
v 68.2 -21.75 -0.1
v 68.2 -23.25 0
v 68.2 -23.25 -0.1
v 67.95 -23.25 0
v 67.95 -23.25 -0.1
v 67.95 -28.25 0
v 67.95 -28.25 -0.1
v 69.2 -28.25 0
v 69.2 -28.25 -0.1
v 69.2 -30.5 0
v 69.2 -30.5 -0.1
v 67.45 -30.5 0
v 67.45 -30.5 -0.1
v 67.45 -29.75 0
v 67.45 -29.75 -0.1
v 65.45 -29.75 0
v 65.45 -29.75 -0.1
v 65.45 -30.5 0
v 65.45 -30.5 -0.1
v 63.95 -30.5 0
v 63.95 -30.5 -0.1
v 63.95 -28.25 0
v 63.95 -28.25 -0.1
v 65.45 -28.25 0
v 65.45 -28.25 -0.1
v 65.45 -23.25 0
v 65.45 -23.25 -0.1
v 65.2 -23.25 0
v 65.2 -23.25 -0.1
v 65.2 -21.75 0
v 65.2 -21.75 -0.1
v 65.45 -21.75 0
v 65.45 -21.75 -0.1
v 65.45 -20.5 0
v 65.45 -20.5 -0.1
v 65.2 -20.5 0
v 65.2 -20.5 -0.1
v 65.2 -16.75 0
v 65.2 -16.75 -0.1
v 61.95 -16.75 0
v 61.95 -16.75 -0.1
v 62.300000000000004 -12.925 0
v 62.300000000000004 -12.925 -0.1
v 62.300000000000004 -10.825 0
v 62.300000000000004 -10.825 -0.1
v 64.9 -12.925 0
v 64.9 -12.925 -0.1
v 64.9 -10.825 0
v 64.9 -10.825 -0.1
vt 61.95 -9.25 0
vt 62.95 -9.25 0
vt 62.95 -10.25 0
vt 64.95 -10.25 0
vt 64.95 -9.25 0
vt 68.45 -9.25 0
vt 68.45 -10.25 0
vt 70.45 -10.25 0
vt 70.45 -9.25 0
vt 71.45 -9.25 0
vt 71.45 -16.75 0
vt 68.2 -16.75 0
vt 68.2 -20.5 0
vt 67.95 -20.5 0
vt 67.95 -21.75 0
vt 68.2 -21.75 0
vt 68.2 -23.25 0
vt 67.95 -23.25 0
vt 67.95 -28.25 0
vt 69.2 -28.25 0
vt 69.2 -30.5 0
vt 67.45 -30.5 0
vt 67.45 -29.75 0
vt 65.45 -29.75 0
vt 65.45 -30.5 0
vt 63.95 -30.5 0
vt 63.95 -28.25 0
vt 65.45 -28.25 0
vt 65.45 -23.25 0
vt 65.2 -23.25 0
vt 65.2 -21.75 0
vt 65.45 -21.75 0
vt 65.45 -20.5 0
vt 65.2 -20.5 0
vt 65.2 -16.75 0
vt 61.95 -16.75 0
vt 62.300000000000004 -12.925 0
vt 62.300000000000004 -10.825 0
vt 64.9 -12.925 0
vt 64.9 -10.825 0
vn 0 0 1
vn 0 0 -1
usemtl floor_19
s off
f 71/36/1 73/37/1 1/1/1
f 2/1/2 74/37/2 72/36/2
f 73/37/1 75/38/1 1/1/1
f 2/1/2 76/38/2 74/37/2
f 75/38/1 5/3/1 1/1/1
f 2/1/2 6/3/2 76/38/2
f 5/3/1 3/2/1 1/1/1
f 2/1/2 4/2/2 6/3/2
f 7/4/1 13/7/1 9/5/1
f 10/5/2 14/7/2 8/4/2
f 13/7/1 11/6/1 9/5/1
f 10/5/2 12/6/2 14/7/2
f 15/8/1 19/10/1 17/9/1
f 18/9/2 20/10/2 16/8/2
f 15/8/1 21/11/1 19/10/1
f 20/10/2 22/11/2 16/8/2
f 41/21/1 45/23/1 43/22/1
f 44/22/2 46/23/2 42/21/2
f 47/24/1 51/26/1 49/25/1
f 50/25/2 52/26/2 48/24/2
f 47/24/1 53/27/1 51/26/1
f 52/26/2 54/27/2 48/24/2
f 69/35/1 73/37/1 71/36/1
f 72/36/2 74/37/2 70/35/2
f 69/35/1 77/39/1 73/37/1
f 74/37/2 78/39/2 70/35/2
f 79/40/1 5/3/1 75/38/1
f 76/38/2 6/3/2 80/40/2
f 79/40/1 7/4/1 5/3/1
f 6/3/2 8/4/2 80/40/2
f 79/40/1 13/7/1 7/4/1
f 8/4/2 14/7/2 80/40/2
f 79/40/1 77/39/1 13/7/1
f 14/7/2 78/39/2 80/40/2
f 77/39/1 23/12/1 13/7/1
f 14/7/2 24/12/2 78/39/2
f 23/12/1 15/8/1 13/7/1
f 14/7/2 16/8/2 24/12/2
f 23/12/1 21/11/1 15/8/1
f 16/8/2 22/11/2 24/12/2
f 39/20/1 45/23/1 41/21/1
f 42/21/2 46/23/2 40/20/2
f 39/20/1 37/19/1 45/23/1
f 46/23/2 38/19/2 40/20/2
f 37/19/1 55/28/1 45/23/1
f 46/23/2 56/28/2 38/19/2
f 55/28/1 47/24/1 45/23/1
f 46/23/2 48/24/2 56/28/2
f 55/28/1 53/27/1 47/24/1
f 48/24/2 54/27/2 56/28/2
f 57/29/1 61/31/1 59/30/1
f 60/30/2 62/31/2 58/29/2
f 57/29/1 63/32/1 61/31/1
f 62/31/2 64/32/2 58/29/2
f 65/33/1 69/35/1 67/34/1
f 68/34/2 70/35/2 66/33/2
f 65/33/1 27/14/1 69/35/1
f 70/35/2 28/14/2 66/33/2
f 27/14/1 23/12/1 69/35/1
f 70/35/2 24/12/2 28/14/2
f 23/12/1 77/39/1 69/35/1
f 70/35/2 78/39/2 24/12/2
f 27/14/1 25/13/1 23/12/1
f 24/12/2 26/13/2 28/14/2
f 29/15/1 33/17/1 31/16/1
f 32/16/2 34/17/2 30/15/2
f 29/15/1 35/18/1 33/17/1
f 34/17/2 36/18/2 30/15/2
f 35/18/1 57/29/1 37/19/1
f 38/19/2 58/29/2 36/18/2
f 57/29/1 55/28/1 37/19/1
f 38/19/2 56/28/2 58/29/2
f 35/18/1 63/32/1 57/29/1
f 58/29/2 64/32/2 36/18/2
f 35/18/1 29/15/1 63/32/1
f 64/32/2 30/15/2 36/18/2
f 29/15/1 65/33/1 63/32/1
f 64/32/2 66/33/2 30/15/2
f 29/15/1 27/14/1 65/33/1
f 66/33/2 28/14/2 30/15/2
