# The Great Editor v0.0.1
mtllib floor_5.mtl
o floor_5
v 12.75 -9.80915 0
v 12.75 -9.80915 -0.1
v 14.185 -9.80915 0
v 14.185 -9.80915 -0.1
v 15.6302 -8.83445 0
v 15.6302 -8.83445 -0.1
v 15.6302 -8.4018 0
v 15.6302 -8.4018 -0.1
v 22.900000000000002 -8.4 0
v 22.900000000000002 -8.4 -0.1
v 22.900000000000002 -12.950000000000001 0
v 22.900000000000002 -12.950000000000001 -0.1
v 23.8 -12.950000000000001 0
v 23.8 -12.950000000000001 -0.1
v 23.8 -11.600000000000001 0
v 23.8 -11.600000000000001 -0.1
v 38.050000000000004 -11.600000000000001 0
v 38.050000000000004 -11.600000000000001 -0.1
v 38.050000000000004 -12.950000000000001 0
v 38.050000000000004 -12.950000000000001 -0.1
v 41.7 -12.950000000000001 0
v 41.7 -12.950000000000001 -0.1
v 41.7 -11.600000000000001 0
v 41.7 -11.600000000000001 -0.1
v 61.95 -11.600000000000001 0
v 61.95 -11.600000000000001 -0.1
v 61.95 -16.75 0
v 61.95 -16.75 -0.1
v 64.95 -16.75 0
v 64.95 -16.75 -0.1
v 64.95 -10.25 0
v 64.95 -10.25 -0.1
v 68.45 -10.25 0
v 68.45 -10.25 -0.1
v 68.45 -16.75 0
v 68.45 -16.75 -0.1
v 71.45 -16.75 0
v 71.45 -16.75 -0.1
v 71.45 -10.25 0
v 71.45 -10.25 -0.1
v 77.45 -10.25 0
v 77.45 -10.25 -0.1
v 77.45 -15.15 0
v 77.45 -15.15 -0.1
v 76.35000000000001 -15.15 0
v 76.35000000000001 -15.15 -0.1
v 76.35000000000001 -26.6 0
v 76.35000000000001 -26.6 -0.1
v 71.45 -26.6 0
v 71.45 -26.6 -0.1
v 71.45 -24.950000000000003 0
v 71.45 -24.950000000000003 -0.1
v 61.95 -24.950000000000003 0
v 61.95 -24.950000000000003 -0.1
v 61.95 -26.6 0
v 61.95 -26.6 -0.1
v 12.75 -26.6 0
v 12.75 -26.6 -0.1
vt 12.75 -9.80915 0
vt 14.185 -9.80915 0
vt 15.6302 -8.83445 0
vt 15.6302 -8.4018 0
vt 22.900000000000002 -8.4 0
vt 22.900000000000002 -12.950000000000001 0
vt 23.8 -12.950000000000001 0
vt 23.8 -11.600000000000001 0
vt 38.050000000000004 -11.600000000000001 0
vt 38.050000000000004 -12.950000000000001 0
vt 41.7 -12.950000000000001 0
vt 41.7 -11.600000000000001 0
vt 61.95 -11.600000000000001 0
vt 61.95 -16.75 0
vt 64.95 -16.75 0
vt 64.95 -10.25 0
vt 68.45 -10.25 0
vt 68.45 -16.75 0
vt 71.45 -16.75 0
vt 71.45 -10.25 0
vt 77.45 -10.25 0
vt 77.45 -15.15 0
vt 76.35000000000001 -15.15 0
vt 76.35000000000001 -26.6 0
vt 71.45 -26.6 0
vt 71.45 -24.950000000000003 0
vt 61.95 -24.950000000000003 0
vt 61.95 -26.6 0
vt 12.75 -26.6 0
vn 0 0 1
vn 0 0 -1
usemtl floor_5
s off
f 57/29/1 3/2/1 1/1/1
f 2/1/2 4/2/2 58/29/2
f 5/3/1 9/5/1 7/4/1
f 8/4/2 10/5/2 6/3/2
f 5/3/1 11/6/1 9/5/1
f 10/5/2 12/6/2 6/3/2
f 29/15/1 35/18/1 31/16/1
f 32/16/2 36/18/2 30/15/2
f 35/18/1 33/17/1 31/16/1
f 32/16/2 34/17/2 36/18/2
f 37/19/1 45/23/1 39/20/1
f 40/20/2 46/23/2 38/19/2
f 45/23/1 41/21/1 39/20/1
f 40/20/2 42/21/2 46/23/2
f 45/23/1 43/22/1 41/21/1
f 42/21/2 44/22/2 46/23/2
f 53/27/1 21/11/1 55/28/1
f 56/28/2 22/11/2 54/27/2
f 21/11/1 19/10/1 55/28/1
f 56/28/2 20/10/2 22/11/2
f 19/10/1 57/29/1 55/28/1
f 56/28/2 58/29/2 20/10/2
f 19/10/1 13/7/1 57/29/1
f 58/29/2 14/7/2 20/10/2
f 13/7/1 11/6/1 57/29/1
f 58/29/2 12/6/2 14/7/2
f 11/6/1 3/2/1 57/29/1
f 58/29/2 4/2/2 12/6/2
f 11/6/1 5/3/1 3/2/1
f 4/2/2 6/3/2 12/6/2
f 13/7/1 19/10/1 15/8/1
f 16/8/2 20/10/2 14/7/2
f 19/10/1 17/9/1 15/8/1
f 16/8/2 18/9/2 20/10/2
f 21/11/1 25/13/1 23/12/1
f 24/12/2 26/13/2 22/11/2
f 21/11/1 27/14/1 25/13/1
f 26/13/2 28/14/2 22/11/2
f 27/14/1 53/27/1 29/15/1
f 30/15/2 54/27/2 28/14/2
f 53/27/1 35/18/1 29/15/1
f 30/15/2 36/18/2 54/27/2
f 53/27/1 51/26/1 35/18/1
f 36/18/2 52/26/2 54/27/2
f 51/26/1 37/19/1 35/18/1
f 36/18/2 38/19/2 52/26/2
f 51/26/1 45/23/1 37/19/1
f 38/19/2 46/23/2 52/26/2
f 51/26/1 47/24/1 45/23/1
f 46/23/2 48/24/2 52/26/2
f 51/26/1 49/25/1 47/24/1
f 48/24/2 50/25/2 52/26/2
f 27/14/1 21/11/1 53/27/1
f 54/27/2 22/11/2 28/14/2
