# The Great Editor v0.0.1
mtllib floor_20.mtl
o floor_20
v 9.45 -13.75 0
v 9.45 -13.75 -0.1
v 9.45 -18.75 0
v 9.45 -18.75 -0.1
v 11.7 -18.75 0
v 11.7 -18.75 -0.1
v 11.7 -17.0 0
v 11.7 -17.0 -0.1
v 10.7 -17.0 0
v 10.7 -17.0 -0.1
v 10.7 -15.5 0
v 10.7 -15.5 -0.1
v 11.7 -15.5 0
v 11.7 -15.5 -0.1
v 11.7 -13.75 0
v 11.7 -13.75 -0.1
vt 9.45 -13.75 0
vt 9.45 -18.75 0
vt 11.7 -18.75 0
vt 11.7 -17.0 0
vt 10.7 -17.0 0
vt 10.7 -15.5 0
vt 11.7 -15.5 0
vt 11.7 -13.75 0
vn 0 0 1
vn 0 0 -1
usemtl floor_20
s off
f 3/2/1 9/5/1 1/1/1
f 2/1/2 10/5/2 4/2/2
f 9/5/1 11/6/1 1/1/1
f 2/1/2 12/6/2 10/5/2
f 11/6/1 15/8/1 1/1/1
f 2/1/2 16/8/2 12/6/2
f 11/6/1 13/7/1 15/8/1
f 16/8/2 14/7/2 12/6/2
f 5/3/1 9/5/1 3/2/1
f 4/2/2 10/5/2 6/3/2
f 5/3/1 7/4/1 9/5/1
f 10/5/2 8/4/2 6/3/2
