# The Great Editor v0.0.1
mtllib floor_6.mtl
o floor_6
v 76.35000000000001 -15.15 0
v 76.35000000000001 -15.15 -0.1
v 76.35000000000001 -21.150000000000002 0
v 76.35000000000001 -21.150000000000002 -0.1
v 94.05000000000001 -21.150000000000002 0
v 94.05000000000001 -21.150000000000002 -0.1
v 94.05000000000001 -15.15 0
v 94.05000000000001 -15.15 -0.1
vt 76.35000000000001 -15.15 0
vt 76.35000000000001 -21.150000000000002 0
vt 94.05000000000001 -21.150000000000002 0
vt 94.05000000000001 -15.15 0
vn 0 0 1
vn 0 0 -1
usemtl floor_6
s off
f 3/2/1 5/3/1 1/1/1
f 2/1/2 6/3/2 4/2/2
f 5/3/1 7/4/1 1/1/1
f 2/1/2 8/4/2 6/3/2
