# The Great Editor v0.0.1
mtllib floor_36.mtl
o floor_36
v 29.2 -9.25 0
v 29.2 -9.25 -0.1
v 29.2 -12.25 0
v 29.2 -12.25 -0.1
v 29.7 -12.25 0
v 29.7 -12.25 -0.1
v 29.7 -16.5 0
v 29.7 -16.5 -0.1
v 37.2 -16.5 0
v 37.2 -16.5 -0.1
v 37.2 -12.25 0
v 37.2 -12.25 -0.1
v 37.7 -12.25 0
v 37.7 -12.25 -0.1
v 37.7 -9.25 0
v 37.7 -9.25 -0.1
v 35.95 -9.25 0
v 35.95 -9.25 -0.1
v 35.95 -10.75 0
v 35.95 -10.75 -0.1
v 30.95 -10.75 0
v 30.95 -10.75 -0.1
v 30.95 -9.25 0
v 30.95 -9.25 -0.1
vt 29.2 -9.25 0
vt 29.2 -12.25 0
vt 29.7 -12.25 0
vt 29.7 -16.5 0
vt 37.2 -16.5 0
vt 37.2 -12.25 0
vt 37.7 -12.25 0
vt 37.7 -9.25 0
vt 35.95 -9.25 0
vt 35.95 -10.75 0
vt 30.95 -10.75 0
vt 30.95 -9.25 0
vn 0 0 1
vn 0 0 -1
usemtl floor_36
s off
f 3/2/1 21/11/1 1/1/1
f 2/1/2 22/11/2 4/2/2
f 21/11/1 23/12/1 1/1/1
f 2/1/2 24/12/2 22/11/2
f 19/10/1 15/8/1 17/9/1
f 18/9/2 16/8/2 20/10/2
f 19/10/1 13/7/1 15/8/1
f 16/8/2 14/7/2 20/10/2
f 11/6/1 5/3/1 9/5/1
f 10/5/2 6/3/2 12/6/2
f 5/3/1 7/4/1 9/5/1
f 10/5/2 8/4/2 6/3/2
f 5/3/1 21/11/1 3/2/1
f 4/2/2 22/11/2 6/3/2
f 5/3/1 19/10/1 21/11/1
f 22/11/2 20/10/2 6/3/2
f 5/3/1 11/6/1 19/10/1
f 20/10/2 12/6/2 6/3/2
f 11/6/1 13/7/1 19/10/1
f 20/10/2 14/7/2 12/6/2
