# The Great Editor v0.0.1
mtllib floor_63.mtl
o floor_63
v 121.7 -23.25 0
v 121.7 -23.25 -0.1
v 121.7 -25.0 0
v 121.7 -25.0 -0.1
v 122.7 -25.0 0
v 122.7 -25.0 -0.1
v 122.7 -26.5 0
v 122.7 -26.5 -0.1
v 121.7 -26.5 0
v 121.7 -26.5 -0.1
v 121.7 -28.25 0
v 121.7 -28.25 -0.1
v 123.95 -28.25 0
v 123.95 -28.25 -0.1
v 123.95 -23.25 0
v 123.95 -23.25 -0.1
vt 121.7 -23.25 0
vt 121.7 -25.0 0
vt 122.7 -25.0 0
vt 122.7 -26.5 0
vt 121.7 -26.5 0
vt 121.7 -28.25 0
vt 123.95 -28.25 0
vt 123.95 -23.25 0
vn 0 0 1
vn 0 0 -1
usemtl floor_63
s off
f 3/2/1 5/3/1 1/1/1
f 2/1/2 6/3/2 4/2/2
f 5/3/1 15/8/1 1/1/1
f 2/1/2 16/8/2 6/3/2
f 5/3/1 13/7/1 15/8/1
f 16/8/2 14/7/2 6/3/2
f 13/7/1 7/4/1 11/6/1
f 12/6/2 8/4/2 14/7/2
f 7/4/1 9/5/1 11/6/1
f 12/6/2 10/5/2 8/4/2
f 7/4/1 13/7/1 5/3/1
f 6/3/2 14/7/2 8/4/2
