# The Great Editor v0.0.1
mtllib floor_26.mtl
o floor_26
v 14.2 -30.5 0
v 14.2 -30.5 -0.1
v 14.2 -31.75 0
v 14.2 -31.75 -0.1
v 13.7 -31.75 0
v 13.7 -31.75 -0.1
v 13.7 -32.25 0
v 13.7 -32.25 -0.1
v 13.2 -32.25 0
v 13.2 -32.25 -0.1
v 13.2 -36.5 0
v 13.2 -36.5 -0.1
v 22.2 -36.5 0
v 22.2 -36.5 -0.1
v 22.2 -32.75 0
v 22.2 -32.75 -0.1
v 16.2 -32.75 0
v 16.2 -32.75 -0.1
v 16.2 -30.5 0
v 16.2 -30.5 -0.1
vt 14.2 -30.5 0
vt 14.2 -31.75 0
vt 13.7 -31.75 0
vt 13.7 -32.25 0
vt 13.2 -32.25 0
vt 13.2 -36.5 0
vt 22.2 -36.5 0
vt 22.2 -32.75 0
vt 16.2 -32.75 0
vt 16.2 -30.5 0
vn 0 0 1
vn 0 0 -1
usemtl floor_26
s off
f 11/6/1 7/4/1 9/5/1
f 10/5/2 8/4/2 12/6/2
f 3/2/1 19/10/1 1/1/1
f 2/1/2 20/10/2 4/2/2
f 3/2/1 17/9/1 19/10/1
f 20/10/2 18/9/2 4/2/2
f 17/9/1 13/7/1 15/8/1
f 16/8/2 14/7/2 18/9/2
f 13/7/1 17/9/1 11/6/1
f 12/6/2 18/9/2 14/7/2
f 17/9/1 7/4/1 11/6/1
f 12/6/2 8/4/2 18/9/2
f 17/9/1 3/2/1 7/4/1
f 8/4/2 4/2/2 18/9/2
f 3/2/1 5/3/1 7/4/1
f 8/4/2 6/3/2 4/2/2
