# The Great Editor v0.0.1
mtllib floor_63.mtl
o floor_63
v 71.48438069884615 -20.372137356986723 0
v 71.48438069884615 -20.372137356986723 -0.1
v 71.27965086867198 -21.247310160904163 0
v 71.27965086867198 -21.247310160904163 -0.1
v 70.41383995831244 -21.868972741898347 0
v 70.41383995831244 -21.868972741898347 -0.1
v 69.00109737167531 -21.859118117100554 0
v 69.00109737167531 -21.859118117100554 -0.1
v 68.41433658684 -21.084955217360505 0
v 68.41433658684 -21.084955217360505 -0.1
v 68.10383378383615 -20.308657148914264 0
v 68.10383378383615 -20.308657148914264 -0.1
v 68.35085637876753 -19.546401920804882 0
v 68.35085637876753 -19.546401920804882 -0.1
v 69.07771707947816 -19.003001485079846 0
v 69.07771707947816 -19.003001485079846 -0.1
v 70.31283005413505 -18.90420887148196 0
v 70.31283005413505 -18.90420887148196 -0.1
v 70.64829790662662 -15.429878777146293 0
v 70.64829790662662 -15.429878777146293 -0.1
v 69.82568310163074 -15.815851581726568 0
v 69.82568310163074 -15.815851581726568 -0.1
v 68.71243898697327 -15.568418377428618 0
v 68.71243898697327 -15.568418377428618 -0.1
v 68.17445859488701 -14.888777753874075 0
v 68.17445859488701 -14.888777753874075 -0.1
v 67.8458889797539 -13.896663402356143 0
v 67.8458889797539 -13.896663402356143 -0.1
v 68.03542626336481 -12.96441589648481 0
v 68.03542626336481 -12.96441589648481 -0.1
v 68.48372956979112 -12.492789978037042 0
v 68.48372956979112 -12.492789978037042 -0.1
v 69.29919977180859 -12.196247893496752 0
v 69.29919977180859 -12.196247893496752 -0.1
v 70.19022209727582 -12.261370539035507 0
v 70.19022209727582 -12.261370539035507 -0.1
v 72.27702102008206 -11.273280159310008 0
v 72.27702102008206 -11.273280159310008 -0.1
v 72.22060329311469 -7.13803322853561 0
v 72.22060329311469 -7.13803322853561 -0.1
v 72.21378717762956 -3.605396604146329 0
v 72.21378717762956 -3.605396604146329 -0.1
v 65.09603805180274 -3.613198182111249 0
v 65.09603805180274 -3.613198182111249 -0.1
v 65.2924735727721 -8.138441889258354 0
v 65.2924735727721 -8.138441889258354 -0.1
v 65.51026078080335 -12.34464211857687 0
v 65.51026078080335 -12.34464211857687 -0.1
v 65.56142270787856 -16.644214917854484 0
v 65.56142270787856 -16.644214917854484 -0.1
v 65.56791033587045 -20.387412025423306 0
v 65.56791033587045 -20.387412025423306 -0.1
v 65.56791033587045 -22.363674906747615 0
v 65.56791033587045 -22.363674906747615 -0.1
v 68.10391590570947 -22.649212660263707 0
v 68.10391590570947 -22.649212660263707 -0.1
v 70.43428830476786 -22.797771129090453 0
v 70.43428830476786 -22.797771129090453 -0.1
v 72.37893426486592 -22.85574917165081 0
v 72.37893426486592 -22.85574917165081 -0.1
v 72.4002859519278 -19.80541430924024 0
v 72.4002859519278 -19.80541430924024 -0.1
vt 71.48438069884615 -20.372137356986723 0
vt 71.27965086867198 -21.247310160904163 0
vt 70.41383995831244 -21.868972741898347 0
vt 69.00109737167531 -21.859118117100554 0
vt 68.41433658684 -21.084955217360505 0
vt 68.10383378383615 -20.308657148914264 0
vt 68.35085637876753 -19.546401920804882 0
vt 69.07771707947816 -19.003001485079846 0
vt 70.31283005413505 -18.90420887148196 0
vt 70.64829790662662 -15.429878777146293 0
vt 69.82568310163074 -15.815851581726568 0
vt 68.71243898697327 -15.568418377428618 0
vt 68.17445859488701 -14.888777753874075 0
vt 67.8458889797539 -13.896663402356143 0
vt 68.03542626336481 -12.96441589648481 0
vt 68.48372956979112 -12.492789978037042 0
vt 69.29919977180859 -12.196247893496752 0
vt 70.19022209727582 -12.261370539035507 0
vt 72.27702102008206 -11.273280159310008 0
vt 72.22060329311469 -7.13803322853561 0
vt 72.21378717762956 -3.605396604146329 0
vt 65.09603805180274 -3.613198182111249 0
vt 65.2924735727721 -8.138441889258354 0
vt 65.51026078080335 -12.34464211857687 0
vt 65.56142270787856 -16.644214917854484 0
vt 65.56791033587045 -20.387412025423306 0
vt 65.56791033587045 -22.363674906747615 0
vt 68.10391590570947 -22.649212660263707 0
vt 70.43428830476786 -22.797771129090453 0
vt 72.37893426486592 -22.85574917165081 0
vt 72.4002859519278 -19.80541430924024 0
vn 0 0 1
vn 0 0 -1
usemtl floor_63
s off
f 45/23/1 39/20/1 43/22/1
f 44/22/2 40/20/2 46/23/2
f 39/20/1 41/21/1 43/22/1
f 44/22/2 42/21/2 40/20/2
f 61/31/1 3/2/1 59/30/1
f 60/30/2 4/2/2 62/31/2
f 3/2/1 57/29/1 59/30/1
f 60/30/2 58/29/2 4/2/2
f 3/2/1 5/3/1 57/29/1
f 58/29/2 6/3/2 4/2/2
f 5/3/1 7/4/1 57/29/1
f 58/29/2 8/4/2 6/3/2
f 7/4/1 55/28/1 57/29/1
f 58/29/2 56/28/2 8/4/2
f 7/4/1 9/5/1 55/28/1
f 56/28/2 10/5/2 8/4/2
f 9/5/1 53/27/1 55/28/1
f 56/28/2 54/27/2 10/5/2
f 9/5/1 51/26/1 53/27/1
f 54/27/2 52/26/2 10/5/2
f 9/5/1 11/6/1 51/26/1
f 52/26/2 12/6/2 10/5/2
f 11/6/1 13/7/1 51/26/1
f 52/26/2 14/7/2 12/6/2
f 13/7/1 49/25/1 51/26/1
f 52/26/2 50/25/2 14/7/2
f 13/7/1 15/8/1 49/25/1
f 50/25/2 16/8/2 14/7/2
f 15/8/1 23/12/1 49/25/1
f 50/25/2 24/12/2 16/8/2
f 23/12/1 25/13/1 49/25/1
f 50/25/2 26/13/2 24/12/2
f 25/13/1 27/14/1 49/25/1
f 50/25/2 28/14/2 26/13/2
f 27/14/1 47/24/1 49/25/1
f 50/25/2 48/24/2 28/14/2
f 47/24/1 31/16/1 45/23/1
f 46/23/2 32/16/2 48/24/2
f 31/16/1 33/17/1 45/23/1
f 46/23/2 34/17/2 32/16/2
f 33/17/1 39/20/1 45/23/1
f 46/23/2 40/20/2 34/17/2
f 33/17/1 35/18/1 39/20/1
f 40/20/2 36/18/2 34/17/2
f 35/18/1 37/19/1 39/20/1
f 40/20/2 38/19/2 36/18/2
f 1/1/1 3/2/1 61/31/1
f 62/31/2 4/2/2 2/1/2
f 17/9/1 21/11/1 15/8/1
f 16/8/2 22/11/2 18/9/2
f 21/11/1 23/12/1 15/8/1
f 16/8/2 24/12/2 22/11/2
f 29/15/1 47/24/1 27/14/1
f 28/14/2 48/24/2 30/15/2
f 29/15/1 31/16/1 47/24/1
f 48/24/2 32/16/2 30/15/2
f 21/11/1 17/9/1 19/10/1
f 20/10/2 18/9/2 22/11/2
